# MagicaVoxel @ Ephtracy

# group
o 

# material
mtllib battery.vox.mtl
usemtl palette

# normals
vn -1 0 0
vn 1 0 0
vn 0 0 1
vn 0 0 -1
vn 0 -1 0
vn 0 1 0

# texcoords
vt 0.189453 0.5
vt 0.955078 0.5
vt 0.978516 0.5
vt 0.982422 0.5
vt 0.986328 0.5
vt 0.990234 0.5

# verts
v -0.8 0 0.8
v -0.8 0 -0.8
v -0.8 1.4 0.8
v -0.8 1.4 -0.8
v -0.6 0.1 0.6
v -0.6 0.1 0.4
v -0.6 0.2 0.6
v -0.6 0.2 0.4
v -0.6 1.2 0.6
v -0.6 1.2 0.4
v -0.6 1.3 0.6
v -0.6 1.3 0.4
v -0.6 1.4 0.5
v -0.6 1.4 0.1
v -0.6 1.6 0.5
v -0.6 1.6 0.1
v -0.1 0.1 0.6
v -0.1 0.1 0.2
v -0.1 0.1 0.1
v -0.1 0.2 0.6
v -0.1 0.2 0.3
v -0.1 1.1 0.3
v -0.1 1.2 0.6
v -0.1 1.2 0.3
v -0.1 1.3 0.6
v -0.1 1.3 0.2
v -0.1 1.3 0.1
v 0.1 0.2 0.7
v 0.1 0.2 0.6
v 0.1 0.9 0.7
v 0.1 0.9 0.6
v 0.1 1.2 0.7
v 0.1 1.2 0.6
v 0.2 0.1 0.6
v 0.2 0.1 0.4
v 0.2 0.2 0.6
v 0.2 0.2 0.4
v 0.2 1.2 0.6
v 0.2 1.2 0.4
v 0.2 1.3 0.6
v 0.2 1.3 0.4
v 0.2 1.4 0.5
v 0.2 1.4 0.1
v 0.2 1.6 0.5
v 0.2 1.6 0.1
v 0.7 0.1 0.8
v 0.7 0.1 0.1
v 0.7 0.2 0.7
v 0.7 0.2 0.3
v 0.7 0.9 0.7
v 0.7 0.9 0.3
v 0.7 1.2 0.7
v 0.7 1.2 0.3
v 0.7 1.3 0.8
v 0.7 1.3 0.1
v -0.7 0.1 0.8
v -0.7 0.1 0.1
v -0.7 0.2 0.7
v -0.7 0.2 0.3
v -0.7 0.9 0.7
v -0.7 1.1 0.3
v -0.7 1.2 0.7
v -0.7 1.2 0.3
v -0.7 1.3 0.8
v -0.7 1.3 0.1
v -0.2 0.1 0.6
v -0.2 0.1 0.4
v -0.2 0.2 0.6
v -0.2 0.2 0.4
v -0.2 1.2 0.6
v -0.2 1.2 0.4
v -0.2 1.3 0.6
v -0.2 1.3 0.4
v -0.2 1.4 0.5
v -0.2 1.4 0.1
v -0.2 1.6 0.5
v -0.2 1.6 0.1
v -0.1 0.2 0.7
v -0.1 0.2 0.6
v -0.1 0.9 0.7
v -0.1 0.9 0.6
v -0.1 1.2 0.7
v -0.1 1.2 0.6
v 0.1 0.1 0.6
v 0.1 0.1 0.2
v 0.1 0.1 0.1
v 0.1 0.2 0.6
v 0.1 0.2 0.3
v 0.1 0.9 0.3
v 0.1 1.2 0.6
v 0.1 1.2 0.3
v 0.1 1.3 0.6
v 0.1 1.3 0.2
v 0.1 1.3 0.1
v 0.6 0.1 0.6
v 0.6 0.1 0.4
v 0.6 0.2 0.6
v 0.6 0.2 0.4
v 0.6 1.2 0.6
v 0.6 1.2 0.4
v 0.6 1.3 0.6
v 0.6 1.3 0.4
v 0.6 1.4 0.5
v 0.6 1.4 0.1
v 0.6 1.6 0.5
v 0.6 1.6 0.1
v 0.8 0 0.8
v 0.8 0 -0.8
v 0.8 1.4 0.8
v 0.8 1.4 -0.8
v -0.8 0 0.8
v -0.8 1.4 0.8
v -0.7 0.1 0.8
v -0.7 1.3 0.8
v 0.7 0.1 0.8
v 0.7 1.3 0.8
v 0.8 0 0.8
v 0.8 1.4 0.8
v -0.7 0.2 0.7
v -0.7 0.9 0.7
v -0.7 1.2 0.7
v -0.1 0.2 0.7
v -0.1 0.9 0.7
v -0.1 1.2 0.7
v 0.1 0.2 0.7
v 0.1 0.9 0.7
v 0.1 1.2 0.7
v 0.7 0.2 0.7
v 0.7 0.9 0.7
v 0.7 1.2 0.7
v -0.6 0.1 0.6
v -0.6 0.2 0.6
v -0.6 1.2 0.6
v -0.6 1.3 0.6
v -0.2 0.1 0.6
v -0.2 0.2 0.6
v -0.2 1.2 0.6
v -0.2 1.3 0.6
v -0.1 0.1 0.6
v -0.1 0.2 0.6
v -0.1 0.9 0.6
v -0.1 1.2 0.6
v -0.1 1.3 0.6
v 0.1 0.1 0.6
v 0.1 0.2 0.6
v 0.1 0.9 0.6
v 0.1 1.2 0.6
v 0.1 1.3 0.6
v 0.2 0.1 0.6
v 0.2 0.2 0.6
v 0.2 1.2 0.6
v 0.2 1.3 0.6
v 0.6 0.1 0.6
v 0.6 0.2 0.6
v 0.6 1.2 0.6
v 0.6 1.3 0.6
v -0.6 1.4 0.5
v -0.6 1.6 0.5
v -0.2 1.4 0.5
v -0.2 1.6 0.5
v 0.2 1.4 0.5
v 0.2 1.6 0.5
v 0.6 1.4 0.5
v 0.6 1.6 0.5
v -0.7 0.1 0.1
v -0.7 1.3 0.1
v -0.1 0.1 0.1
v -0.1 1.3 0.1
v 0.1 0.1 0.1
v 0.1 1.3 0.1
v 0.7 0.1 0.1
v 0.7 1.3 0.1
v -0.6 0.1 0.4
v -0.6 0.2 0.4
v -0.6 1.2 0.4
v -0.6 1.3 0.4
v -0.2 0.1 0.4
v -0.2 0.2 0.4
v -0.2 1.2 0.4
v -0.2 1.3 0.4
v 0.2 0.1 0.4
v 0.2 0.2 0.4
v 0.2 1.2 0.4
v 0.2 1.3 0.4
v 0.6 0.1 0.4
v 0.6 0.2 0.4
v 0.6 1.2 0.4
v 0.6 1.3 0.4
v -0.7 0.2 0.3
v -0.7 1.1 0.3
v -0.7 1.2 0.3
v -0.1 0.2 0.3
v -0.1 1.1 0.3
v -0.1 1.2 0.3
v 0.1 0.2 0.3
v 0.1 0.9 0.3
v 0.1 1.2 0.3
v 0.7 0.2 0.3
v 0.7 0.9 0.3
v 0.7 1.2 0.3
v -0.6 1.4 0.1
v -0.6 1.6 0.1
v -0.2 1.4 0.1
v -0.2 1.6 0.1
v 0.2 1.4 0.1
v 0.2 1.6 0.1
v 0.6 1.4 0.1
v 0.6 1.6 0.1
v -0.8 0 -0.8
v -0.8 1.4 -0.8
v 0.8 0 -0.8
v 0.8 1.4 -0.8
v -0.8 0 0.8
v 0.8 0 0.8
v -0.8 0 -0.8
v 0.8 0 -0.8
v -0.7 0.2 0.7
v -0.1 0.2 0.7
v 0.1 0.2 0.7
v 0.7 0.2 0.7
v -0.6 0.2 0.6
v -0.2 0.2 0.6
v -0.1 0.2 0.6
v 0.1 0.2 0.6
v 0.2 0.2 0.6
v 0.6 0.2 0.6
v -0.6 0.2 0.4
v -0.2 0.2 0.4
v 0.2 0.2 0.4
v 0.6 0.2 0.4
v -0.7 0.2 0.3
v -0.1 0.2 0.3
v 0.1 0.2 0.3
v 0.7 0.2 0.3
v -0.7 1.3 0.8
v 0.7 1.3 0.8
v -0.6 1.3 0.6
v -0.2 1.3 0.6
v -0.1 1.3 0.6
v 0.1 1.3 0.6
v 0.2 1.3 0.6
v 0.6 1.3 0.6
v -0.6 1.3 0.4
v -0.2 1.3 0.4
v 0.2 1.3 0.4
v 0.6 1.3 0.4
v -0.1 1.3 0.2
v 0.1 1.3 0.2
v -0.7 1.3 0.1
v -0.1 1.3 0.1
v 0.1 1.3 0.1
v 0.7 1.3 0.1
v -0.7 0.1 0.8
v 0.7 0.1 0.8
v -0.6 0.1 0.6
v -0.2 0.1 0.6
v -0.1 0.1 0.6
v 0.1 0.1 0.6
v 0.2 0.1 0.6
v 0.6 0.1 0.6
v -0.6 0.1 0.4
v -0.2 0.1 0.4
v 0.2 0.1 0.4
v 0.6 0.1 0.4
v -0.1 0.1 0.2
v 0.1 0.1 0.2
v -0.7 0.1 0.1
v -0.1 0.1 0.1
v 0.1 0.1 0.1
v 0.7 0.1 0.1
v -0.7 1.2 0.7
v -0.1 1.2 0.7
v 0.1 1.2 0.7
v 0.7 1.2 0.7
v -0.6 1.2 0.6
v -0.2 1.2 0.6
v -0.1 1.2 0.6
v 0.1 1.2 0.6
v 0.2 1.2 0.6
v 0.6 1.2 0.6
v -0.6 1.2 0.4
v -0.2 1.2 0.4
v 0.2 1.2 0.4
v 0.6 1.2 0.4
v -0.7 1.2 0.3
v -0.1 1.2 0.3
v 0.1 1.2 0.3
v 0.7 1.2 0.3
v -0.8 1.4 0.8
v 0.8 1.4 0.8
v -0.6 1.4 0.5
v -0.2 1.4 0.5
v 0.2 1.4 0.5
v 0.6 1.4 0.5
v -0.6 1.4 0.1
v -0.2 1.4 0.1
v 0.2 1.4 0.1
v 0.6 1.4 0.1
v -0.8 1.4 -0.8
v 0.8 1.4 -0.8
v -0.6 1.6 0.5
v -0.2 1.6 0.5
v 0.2 1.6 0.5
v 0.6 1.6 0.5
v -0.6 1.6 0.1
v -0.2 1.6 0.1
v 0.2 1.6 0.1
v 0.6 1.6 0.1

# faces
f 3/5/1 2/5/1 1/5/1
f 4/5/1 2/5/1 3/5/1
f 7/3/1 6/3/1 5/3/1
f 8/3/1 6/3/1 7/3/1
f 11/3/1 10/3/1 9/3/1
f 12/3/1 10/3/1 11/3/1
f 15/4/1 14/4/1 13/4/1
f 16/4/1 14/4/1 15/4/1
f 20/2/1 18/2/1 17/2/1
f 21/2/1 18/2/1 20/2/1
f 22/2/1 18/2/1 21/2/1
f 24/2/1 18/2/1 22/2/1
f 25/2/1 24/2/1 23/2/1
f 26/5/1 19/5/1 18/5/1
f 26/2/1 24/2/1 25/2/1
f 26/2/1 18/2/1 24/2/1
f 27/5/1 19/5/1 26/5/1
f 30/6/1 29/6/1 28/6/1
f 31/6/1 29/6/1 30/6/1
f 32/1/1 31/1/1 30/1/1
f 33/1/1 31/1/1 32/1/1
f 36/3/1 35/3/1 34/3/1
f 37/3/1 35/3/1 36/3/1
f 40/3/1 39/3/1 38/3/1
f 41/3/1 39/3/1 40/3/1
f 44/4/1 43/4/1 42/4/1
f 45/4/1 43/4/1 44/4/1
f 48/5/1 47/5/1 46/5/1
f 49/5/1 47/5/1 48/5/1
f 50/5/1 48/5/1 46/5/1
f 51/5/1 47/5/1 49/5/1
f 52/5/1 50/5/1 46/5/1
f 53/5/1 47/5/1 51/5/1
f 54/5/1 52/5/1 46/5/1
f 54/5/1 53/5/1 52/5/1
f 55/5/1 47/5/1 53/5/1
f 55/5/1 53/5/1 54/5/1
f 56/5/2 57/5/2 58/5/2
f 58/5/2 57/5/2 59/5/2
f 56/5/2 58/5/2 60/5/2
f 59/5/2 57/5/2 61/5/2
f 56/5/2 60/5/2 62/5/2
f 61/5/2 57/5/2 63/5/2
f 56/5/2 62/5/2 64/5/2
f 62/5/2 63/5/2 64/5/2
f 63/5/2 57/5/2 65/5/2
f 64/5/2 63/5/2 65/5/2
f 66/3/2 67/3/2 68/3/2
f 68/3/2 67/3/2 69/3/2
f 70/3/2 71/3/2 72/3/2
f 72/3/2 71/3/2 73/3/2
f 74/4/2 75/4/2 76/4/2
f 76/4/2 75/4/2 77/4/2
f 78/6/2 79/6/2 80/6/2
f 80/6/2 79/6/2 81/6/2
f 80/1/2 81/1/2 82/1/2
f 82/1/2 81/1/2 83/1/2
f 84/2/2 85/2/2 87/2/2
f 87/2/2 85/2/2 88/2/2
f 88/2/2 85/2/2 89/2/2
f 89/2/2 85/2/2 91/2/2
f 90/2/2 91/2/2 92/2/2
f 85/5/2 86/5/2 93/5/2
f 92/2/2 91/2/2 93/2/2
f 91/2/2 85/2/2 93/2/2
f 93/5/2 86/5/2 94/5/2
f 95/3/2 96/3/2 97/3/2
f 97/3/2 96/3/2 98/3/2
f 99/3/2 100/3/2 101/3/2
f 101/3/2 100/3/2 102/3/2
f 103/4/2 104/4/2 105/4/2
f 105/4/2 104/4/2 106/4/2
f 107/5/2 108/5/2 109/5/2
f 109/5/2 108/5/2 110/5/2
f 113/5/3 112/5/3 111/5/3
f 114/5/3 112/5/3 113/5/3
f 115/5/3 113/5/3 111/5/3
f 116/5/3 112/5/3 114/5/3
f 117/5/3 115/5/3 111/5/3
f 117/5/3 116/5/3 115/5/3
f 118/5/3 112/5/3 116/5/3
f 118/5/3 116/5/3 117/5/3
f 122/6/3 120/6/3 119/6/3
f 123/1/3 121/1/3 120/1/3
f 123/6/3 120/6/3 122/6/3
f 124/1/3 121/1/3 123/1/3
f 128/6/3 126/6/3 125/6/3
f 129/1/3 127/1/3 126/1/3
f 129/6/3 126/6/3 128/6/3
f 130/1/3 127/1/3 129/1/3
f 135/3/3 132/3/3 131/3/3
f 136/3/3 132/3/3 135/3/3
f 137/3/3 134/3/3 133/3/3
f 138/3/3 134/3/3 137/3/3
f 144/2/3 140/2/3 139/2/3
f 144/2/3 143/2/3 142/2/3
f 144/2/3 142/2/3 141/2/3
f 144/2/3 141/2/3 140/2/3
f 145/2/3 143/2/3 144/2/3
f 146/2/3 143/2/3 145/2/3
f 147/2/3 143/2/3 146/2/3
f 148/2/3 143/2/3 147/2/3
f 153/3/3 150/3/3 149/3/3
f 154/3/3 150/3/3 153/3/3
f 155/3/3 152/3/3 151/3/3
f 156/3/3 152/3/3 155/3/3
f 159/4/3 158/4/3 157/4/3
f 160/4/3 158/4/3 159/4/3
f 163/4/3 162/4/3 161/4/3
f 164/4/3 162/4/3 163/4/3
f 167/5/3 166/5/3 165/5/3
f 168/5/3 166/5/3 167/5/3
f 171/5/3 170/5/3 169/5/3
f 172/5/3 170/5/3 171/5/3
f 173/3/4 174/3/4 177/3/4
f 177/3/4 174/3/4 178/3/4
f 175/3/4 176/3/4 179/3/4
f 179/3/4 176/3/4 180/3/4
f 181/3/4 182/3/4 185/3/4
f 185/3/4 182/3/4 186/3/4
f 183/3/4 184/3/4 187/3/4
f 187/3/4 184/3/4 188/3/4
f 189/6/4 190/6/4 192/6/4
f 190/1/4 191/1/4 193/1/4
f 192/6/4 190/6/4 193/6/4
f 193/1/4 191/1/4 194/1/4
f 195/6/4 196/6/4 198/6/4
f 196/1/4 197/1/4 199/1/4
f 198/6/4 196/6/4 199/6/4
f 199/1/4 197/1/4 200/1/4
f 201/4/4 202/4/4 203/4/4
f 203/4/4 202/4/4 204/4/4
f 205/4/4 206/4/4 207/4/4
f 207/4/4 206/4/4 208/4/4
f 209/5/4 210/5/4 211/5/4
f 211/5/4 210/5/4 212/5/4
f 215/5/5 214/5/5 213/5/5
f 216/5/5 214/5/5 215/5/5
f 221/6/5 218/6/5 217/6/5
f 222/6/5 218/6/5 221/6/5
f 223/6/5 218/6/5 222/6/5
f 224/6/5 220/6/5 219/6/5
f 225/6/5 220/6/5 224/6/5
f 226/6/5 220/6/5 225/6/5
f 227/6/5 221/6/5 217/6/5
f 228/6/5 223/6/5 222/6/5
f 229/6/5 225/6/5 224/6/5
f 230/6/5 220/6/5 226/6/5
f 231/6/5 227/6/5 217/6/5
f 231/6/5 228/6/5 227/6/5
f 232/6/5 223/6/5 228/6/5
f 232/6/5 228/6/5 231/6/5
f 233/6/5 230/6/5 229/6/5
f 233/6/5 229/6/5 224/6/5
f 234/6/5 220/6/5 230/6/5
f 234/6/5 230/6/5 233/6/5
f 237/5/5 236/5/5 235/5/5
f 238/5/5 236/5/5 237/5/5
f 239/5/5 236/5/5 238/5/5
f 240/5/5 236/5/5 239/5/5
f 241/5/5 236/5/5 240/5/5
f 242/5/5 236/5/5 241/5/5
f 243/5/5 237/5/5 235/5/5
f 244/5/5 239/5/5 238/5/5
f 245/5/5 241/5/5 240/5/5
f 246/5/5 236/5/5 242/5/5
f 247/5/5 244/5/5 243/5/5
f 247/5/5 239/5/5 244/5/5
f 248/5/5 245/5/5 240/5/5
f 248/5/5 246/5/5 245/5/5
f 249/5/5 247/5/5 243/5/5
f 249/5/5 243/5/5 235/5/5
f 250/5/5 247/5/5 249/5/5
f 251/5/5 246/5/5 248/5/5
f 252/5/5 236/5/5 246/5/5
f 252/5/5 246/5/5 251/5/5
f 253/5/6 254/5/6 255/5/6
f 255/5/6 254/5/6 256/5/6
f 256/5/6 254/5/6 257/5/6
f 257/5/6 254/5/6 258/5/6
f 258/5/6 254/5/6 259/5/6
f 259/5/6 254/5/6 260/5/6
f 253/5/6 255/5/6 261/5/6
f 256/5/6 257/5/6 262/5/6
f 258/5/6 259/5/6 263/5/6
f 260/5/6 254/5/6 264/5/6
f 261/5/6 262/5/6 265/5/6
f 262/5/6 257/5/6 265/5/6
f 258/5/6 263/5/6 266/5/6
f 263/5/6 264/5/6 266/5/6
f 261/5/6 265/5/6 267/5/6
f 253/5/6 261/5/6 267/5/6
f 267/5/6 265/5/6 268/5/6
f 266/5/6 264/5/6 269/5/6
f 264/5/6 254/5/6 270/5/6
f 269/5/6 264/5/6 270/5/6
f 271/1/6 272/1/6 275/1/6
f 275/1/6 272/1/6 276/1/6
f 276/1/6 272/1/6 277/1/6
f 273/1/6 274/1/6 278/1/6
f 278/1/6 274/1/6 279/1/6
f 279/1/6 274/1/6 280/1/6
f 271/1/6 275/1/6 281/1/6
f 276/1/6 277/1/6 282/1/6
f 278/1/6 279/1/6 283/1/6
f 280/1/6 274/1/6 284/1/6
f 271/1/6 281/1/6 285/1/6
f 281/1/6 282/1/6 285/1/6
f 282/1/6 277/1/6 286/1/6
f 285/1/6 282/1/6 286/1/6
f 283/1/6 284/1/6 287/1/6
f 278/1/6 283/1/6 287/1/6
f 284/1/6 274/1/6 288/1/6
f 287/1/6 284/1/6 288/1/6
f 289/5/6 290/5/6 291/5/6
f 291/5/6 290/5/6 292/5/6
f 292/5/6 290/5/6 293/5/6
f 293/5/6 290/5/6 294/5/6
f 289/5/6 291/5/6 295/5/6
f 292/5/6 293/5/6 296/5/6
f 296/5/6 293/5/6 297/5/6
f 294/5/6 290/5/6 298/5/6
f 296/5/6 297/5/6 299/5/6
f 297/5/6 298/5/6 299/5/6
f 289/5/6 295/5/6 299/5/6
f 295/5/6 296/5/6 299/5/6
f 298/5/6 290/5/6 300/5/6
f 299/5/6 298/5/6 300/5/6
f 301/4/6 302/4/6 305/4/6
f 305/4/6 302/4/6 306/4/6
f 303/4/6 304/4/6 307/4/6
f 307/4/6 304/4/6 308/4/6
