# MagicaVoxel @ Ephtracy

# group
o 

# material
mtllib barn door right.vox.mtl
usemtl palette

# normals
vn -1 0 0
vn 1 0 0
vn 0 0 1
vn 0 0 -1
vn 0 -1 0
vn 0 1 0

# texcoords
vt 0.0996094 0.5
vt 0.958984 0.5

# verts
v -0.8 0 0.8
v -0.8 0 0.7
v -0.8 0 -0.8
v -0.8 1.6 0.8
v -0.8 1.6 0.7
v -0.8 1.6 -0.8
v 0.8 0 0.8
v 0.8 0 0.7
v 0.8 0 -0.8
v 0.8 1.6 0.8
v 0.8 1.6 0.7
v 0.8 1.6 -0.8
v -0.8 0 0.8
v -0.8 1.6 0.8
v -0.7 0.1 0.8
v -0.7 1.4 0.8
v -0.6 1.3 0.8
v -0.6 1.4 0.8
v -0.6 1.5 0.8
v -0.6 1.6 0.8
v -0.5 1.2 0.8
v -0.5 1.3 0.8
v -0.5 1.4 0.8
v -0.5 1.5 0.8
v -0.4 1.1 0.8
v -0.4 1.2 0.8
v -0.4 1.3 0.8
v -0.4 1.4 0.8
v -0.3 1 0.8
v -0.3 1.1 0.8
v -0.3 1.2 0.8
v -0.3 1.3 0.8
v -0.2 0.9 0.8
v -0.2 1 0.8
v -0.2 1.1 0.8
v -0.2 1.2 0.8
v -0.1 0.8 0.8
v -0.1 0.9 0.8
v -0.1 1 0.8
v -0.1 1.1 0.8
v 0 0.7 0.8
v 0 0.8 0.8
v 0 0.9 0.8
v 0 1 0.8
v 0.1 0.6 0.8
v 0.1 0.7 0.8
v 0.1 0.8 0.8
v 0.1 0.9 0.8
v 0.2 0.5 0.8
v 0.2 0.6 0.8
v 0.2 0.7 0.8
v 0.2 0.8 0.8
v 0.3 0.4 0.8
v 0.3 0.5 0.8
v 0.3 0.6 0.8
v 0.3 0.7 0.8
v 0.4 0.3 0.8
v 0.4 0.4 0.8
v 0.4 0.5 0.8
v 0.4 0.6 0.8
v 0.5 0.2 0.8
v 0.5 0.3 0.8
v 0.5 0.4 0.8
v 0.5 0.5 0.8
v 0.6 0.1 0.8
v 0.6 0.2 0.8
v 0.6 0.3 0.8
v 0.6 0.4 0.8
v 0.7 0.3 0.8
v 0.7 1.6 0.8
v 0.8 0 0.8
v 0.8 1.6 0.8
v -0.8 0 -0.8
v -0.8 1.6 -0.8
v 0.8 0 -0.8
v 0.8 1.6 -0.8
v -0.8 0 0.8
v 0.8 0 0.8
v -0.8 0 0.7
v 0.8 0 0.7
v -0.8 0 -0.8
v 0.8 0 -0.8
v -0.8 1.6 0.8
v -0.6 1.6 0.8
v 0.7 1.6 0.8
v 0.8 1.6 0.8
v -0.8 1.6 0.7
v -0.6 1.6 0.7
v 0.7 1.6 0.7
v 0.8 1.6 0.7
v -0.8 1.6 -0.8
v 0.8 1.6 -0.8

# faces
f 4/2/1 2/2/1 1/2/1
f 5/1/1 3/1/1 2/1/1
f 5/2/1 2/2/1 4/2/1
f 6/1/1 3/1/1 5/1/1
f 7/2/2 8/2/2 10/2/2
f 8/1/2 9/1/2 11/1/2
f 10/2/2 8/2/2 11/2/2
f 11/1/2 9/1/2 12/1/2
f 15/2/3 14/2/3 13/2/3
f 16/2/3 14/2/3 15/2/3
f 17/1/3 16/1/3 15/1/3
f 18/2/3 14/2/3 16/2/3
f 18/1/3 16/1/3 17/1/3
f 19/2/3 14/2/3 18/2/3
f 20/2/3 14/2/3 19/2/3
f 21/1/3 17/1/3 15/1/3
f 22/2/3 18/2/3 17/2/3
f 22/1/3 17/1/3 21/1/3
f 22/2/3 19/2/3 18/2/3
f 23/2/3 19/2/3 22/2/3
f 24/1/3 20/1/3 19/1/3
f 24/2/3 19/2/3 23/2/3
f 25/1/3 21/1/3 15/1/3
f 26/2/3 23/2/3 22/2/3
f 26/1/3 21/1/3 25/1/3
f 26/2/3 22/2/3 21/2/3
f 27/2/3 23/2/3 26/2/3
f 28/1/3 24/1/3 23/1/3
f 28/2/3 23/2/3 27/2/3
f 29/1/3 25/1/3 15/1/3
f 30/2/3 27/2/3 26/2/3
f 30/1/3 25/1/3 29/1/3
f 30/2/3 26/2/3 25/2/3
f 31/2/3 27/2/3 30/2/3
f 32/1/3 28/1/3 27/1/3
f 32/2/3 27/2/3 31/2/3
f 33/1/3 29/1/3 15/1/3
f 34/2/3 31/2/3 30/2/3
f 34/1/3 29/1/3 33/1/3
f 34/2/3 30/2/3 29/2/3
f 35/2/3 31/2/3 34/2/3
f 36/1/3 32/1/3 31/1/3
f 36/2/3 31/2/3 35/2/3
f 37/1/3 33/1/3 15/1/3
f 38/2/3 35/2/3 34/2/3
f 38/1/3 33/1/3 37/1/3
f 38/2/3 34/2/3 33/2/3
f 39/2/3 35/2/3 38/2/3
f 40/1/3 36/1/3 35/1/3
f 40/2/3 35/2/3 39/2/3
f 41/1/3 37/1/3 15/1/3
f 42/2/3 39/2/3 38/2/3
f 42/1/3 37/1/3 41/1/3
f 42/2/3 38/2/3 37/2/3
f 43/2/3 39/2/3 42/2/3
f 44/1/3 40/1/3 39/1/3
f 44/2/3 39/2/3 43/2/3
f 45/1/3 41/1/3 15/1/3
f 46/2/3 43/2/3 42/2/3
f 46/1/3 41/1/3 45/1/3
f 46/2/3 42/2/3 41/2/3
f 47/2/3 43/2/3 46/2/3
f 48/1/3 44/1/3 43/1/3
f 48/2/3 43/2/3 47/2/3
f 49/1/3 45/1/3 15/1/3
f 50/2/3 47/2/3 46/2/3
f 50/1/3 45/1/3 49/1/3
f 50/2/3 46/2/3 45/2/3
f 51/2/3 47/2/3 50/2/3
f 52/1/3 48/1/3 47/1/3
f 52/2/3 47/2/3 51/2/3
f 53/1/3 49/1/3 15/1/3
f 54/2/3 51/2/3 50/2/3
f 54/1/3 49/1/3 53/1/3
f 54/2/3 50/2/3 49/2/3
f 55/2/3 51/2/3 54/2/3
f 56/1/3 52/1/3 51/1/3
f 56/2/3 51/2/3 55/2/3
f 57/1/3 53/1/3 15/1/3
f 58/2/3 55/2/3 54/2/3
f 58/1/3 53/1/3 57/1/3
f 58/2/3 54/2/3 53/2/3
f 59/2/3 55/2/3 58/2/3
f 60/1/3 56/1/3 55/1/3
f 60/2/3 55/2/3 59/2/3
f 61/1/3 57/1/3 15/1/3
f 62/2/3 59/2/3 58/2/3
f 62/1/3 57/1/3 61/1/3
f 62/2/3 58/2/3 57/2/3
f 63/2/3 59/2/3 62/2/3
f 64/1/3 60/1/3 59/1/3
f 64/2/3 59/2/3 63/2/3
f 65/2/3 15/2/3 13/2/3
f 65/1/3 61/1/3 15/1/3
f 66/2/3 63/2/3 62/2/3
f 66/1/3 61/1/3 65/1/3
f 66/2/3 62/2/3 61/2/3
f 67/2/3 63/2/3 66/2/3
f 68/1/3 64/1/3 63/1/3
f 68/2/3 63/2/3 67/2/3
f 69/2/3 67/2/3 66/2/3
f 69/2/3 66/2/3 65/2/3
f 69/1/3 68/1/3 67/1/3
f 70/1/3 60/1/3 64/1/3
f 70/1/3 68/1/3 69/1/3
f 70/1/3 20/1/3 24/1/3
f 70/1/3 24/1/3 28/1/3
f 70/1/3 64/1/3 68/1/3
f 70/1/3 56/1/3 60/1/3
f 70/1/3 52/1/3 56/1/3
f 70/1/3 48/1/3 52/1/3
f 70/1/3 44/1/3 48/1/3
f 70/1/3 40/1/3 44/1/3
f 70/1/3 36/1/3 40/1/3
f 70/1/3 32/1/3 36/1/3
f 70/1/3 28/1/3 32/1/3
f 71/2/3 69/2/3 65/2/3
f 71/2/3 65/2/3 13/2/3
f 71/2/3 70/2/3 69/2/3
f 72/2/3 70/2/3 71/2/3
f 73/1/4 74/1/4 75/1/4
f 75/1/4 74/1/4 76/1/4
f 79/2/5 78/2/5 77/2/5
f 80/2/5 78/2/5 79/2/5
f 81/1/5 80/1/5 79/1/5
f 82/1/5 80/1/5 81/1/5
f 83/2/6 84/2/6 87/2/6
f 84/1/6 85/1/6 88/1/6
f 87/2/6 84/2/6 88/2/6
f 85/2/6 86/2/6 89/2/6
f 88/1/6 85/1/6 89/1/6
f 89/2/6 86/2/6 90/2/6
f 87/1/6 88/1/6 91/1/6
f 88/1/6 89/1/6 91/1/6
f 89/1/6 90/1/6 91/1/6
f 91/1/6 90/1/6 92/1/6
