# MagicaVoxel @ Ephtracy

# group
o 

# material
mtllib pillar1.vox.mtl
usemtl palette

# normals
vn -1 0 0
vn 1 0 0
vn 0 0 1
vn 0 0 -1
vn 0 -1 0
vn 0 1 0

# texcoords
vt 0.134766 0.5
vt 0.166016 0.5
vt 0.169922 0.5
vt 0.173828 0.5
vt 0.177734 0.5

# verts
v -0.8 0 0.3
v -0.8 0 -0.3
v -0.8 1.6 0.3
v -0.8 1.6 -0.3
v -0.7 0 0.5
v -0.7 0 0.3
v -0.7 0 -0.3
v -0.7 0 -0.5
v -0.7 1.6 0.5
v -0.7 1.6 0.3
v -0.7 1.6 -0.3
v -0.7 1.6 -0.5
v -0.6 0 0.6
v -0.6 0 0.5
v -0.6 0 -0.5
v -0.6 0 -0.6
v -0.6 1.6 0.6
v -0.6 1.6 0.5
v -0.6 1.6 -0.5
v -0.6 1.6 -0.6
v -0.5 0 0.7
v -0.5 0 0.6
v -0.5 0 -0.6
v -0.5 0 -0.7
v -0.5 1.6 0.7
v -0.5 1.6 0.6
v -0.5 1.6 -0.6
v -0.5 1.6 -0.7
v -0.3 0 0.8
v -0.3 0 0.7
v -0.3 0 -0.7
v -0.3 0 -0.8
v -0.3 1.6 0.8
v -0.3 1.6 0.7
v -0.3 1.6 -0.7
v -0.3 1.6 -0.8
v 0.3 0 0.8
v 0.3 0 0.7
v 0.3 0 -0.7
v 0.3 0 -0.8
v 0.3 1.6 0.8
v 0.3 1.6 0.7
v 0.3 1.6 -0.7
v 0.3 1.6 -0.8
v 0.5 0 0.7
v 0.5 0 0.6
v 0.5 0 -0.6
v 0.5 0 -0.7
v 0.5 1.6 0.7
v 0.5 1.6 0.6
v 0.5 1.6 -0.6
v 0.5 1.6 -0.7
v 0.6 0 0.6
v 0.6 0 0.5
v 0.6 0 -0.5
v 0.6 0 -0.6
v 0.6 1.6 0.6
v 0.6 1.6 0.5
v 0.6 1.6 -0.5
v 0.6 1.6 -0.6
v 0.7 0 0.5
v 0.7 0 0.3
v 0.7 0 -0.3
v 0.7 0 -0.5
v 0.7 1.6 0.5
v 0.7 1.6 0.3
v 0.7 1.6 -0.3
v 0.7 1.6 -0.5
v 0.8 0 0.3
v 0.8 0 -0.3
v 0.8 1.6 0.3
v 0.8 1.6 -0.3
v -0.3 0 0.8
v -0.3 1.6 0.8
v 0.3 0 0.8
v 0.3 1.6 0.8
v -0.5 0 0.7
v -0.5 1.6 0.7
v -0.3 0 0.7
v -0.3 1.6 0.7
v 0.3 0 0.7
v 0.3 1.6 0.7
v 0.5 0 0.7
v 0.5 1.6 0.7
v -0.6 0 0.6
v -0.6 1.6 0.6
v -0.5 0 0.6
v -0.5 1.6 0.6
v 0.5 0 0.6
v 0.5 1.6 0.6
v 0.6 0 0.6
v 0.6 1.6 0.6
v -0.7 0 0.5
v -0.7 1.6 0.5
v -0.6 0 0.5
v -0.6 1.6 0.5
v 0.6 0 0.5
v 0.6 1.6 0.5
v 0.7 0 0.5
v 0.7 1.6 0.5
v -0.8 0 0.3
v -0.8 1.6 0.3
v -0.7 0 0.3
v -0.7 1.6 0.3
v 0.7 0 0.3
v 0.7 1.6 0.3
v 0.8 0 0.3
v 0.8 1.6 0.3
v -0.8 0 -0.3
v -0.8 1.6 -0.3
v -0.7 0 -0.3
v -0.7 1.6 -0.3
v 0.7 0 -0.3
v 0.7 1.6 -0.3
v 0.8 0 -0.3
v 0.8 1.6 -0.3
v -0.7 0 -0.5
v -0.7 1.6 -0.5
v -0.6 0 -0.5
v -0.6 1.6 -0.5
v 0.6 0 -0.5
v 0.6 1.6 -0.5
v 0.7 0 -0.5
v 0.7 1.6 -0.5
v -0.6 0 -0.6
v -0.6 1.6 -0.6
v -0.5 0 -0.6
v -0.5 1.6 -0.6
v 0.5 0 -0.6
v 0.5 1.6 -0.6
v 0.6 0 -0.6
v 0.6 1.6 -0.6
v -0.5 0 -0.7
v -0.5 1.6 -0.7
v -0.3 0 -0.7
v -0.3 1.6 -0.7
v 0.3 0 -0.7
v 0.3 1.6 -0.7
v 0.5 0 -0.7
v 0.5 1.6 -0.7
v -0.3 0 -0.8
v -0.3 1.6 -0.8
v 0.3 0 -0.8
v 0.3 1.6 -0.8
v -0.3 0 0.8
v 0.3 0 0.8
v -0.5 0 0.7
v -0.3 0 0.7
v 0.3 0 0.7
v 0.5 0 0.7
v -0.6 0 0.6
v -0.5 0 0.6
v 0.5 0 0.6
v 0.6 0 0.6
v -0.7 0 0.5
v -0.6 0 0.5
v 0.6 0 0.5
v 0.7 0 0.5
v -0.8 0 0.3
v -0.7 0 0.3
v 0.7 0 0.3
v 0.8 0 0.3
v -0.8 0 -0.3
v -0.7 0 -0.3
v 0.7 0 -0.3
v 0.8 0 -0.3
v -0.7 0 -0.5
v -0.6 0 -0.5
v 0.6 0 -0.5
v 0.7 0 -0.5
v -0.6 0 -0.6
v -0.5 0 -0.6
v 0.5 0 -0.6
v 0.6 0 -0.6
v -0.5 0 -0.7
v -0.3 0 -0.7
v 0.3 0 -0.7
v 0.5 0 -0.7
v -0.3 0 -0.8
v 0.3 0 -0.8
v -0.3 1.6 0.8
v 0.3 1.6 0.8
v -0.5 1.6 0.7
v -0.3 1.6 0.7
v -0.2 1.6 0.7
v 0.2 1.6 0.7
v 0.3 1.6 0.7
v 0.5 1.6 0.7
v -0.6 1.6 0.6
v -0.5 1.6 0.6
v -0.4 1.6 0.6
v -0.2 1.6 0.6
v 0.2 1.6 0.6
v 0.4 1.6 0.6
v 0.5 1.6 0.6
v 0.6 1.6 0.6
v -0.7 1.6 0.5
v -0.6 1.6 0.5
v -0.5 1.6 0.5
v -0.4 1.6 0.5
v -0.2 1.6 0.5
v -0.1 1.6 0.5
v 0.1 1.6 0.5
v 0.2 1.6 0.5
v 0.4 1.6 0.5
v 0.5 1.6 0.5
v 0.6 1.6 0.5
v 0.7 1.6 0.5
v -0.6 1.6 0.4
v -0.5 1.6 0.4
v -0.4 1.6 0.4
v -0.3 1.6 0.4
v -0.1 1.6 0.4
v 0.1 1.6 0.4
v 0.3 1.6 0.4
v 0.4 1.6 0.4
v 0.5 1.6 0.4
v 0.6 1.6 0.4
v -0.8 1.6 0.3
v -0.7 1.6 0.3
v -0.4 1.6 0.3
v -0.3 1.6 0.3
v -0.1 1.6 0.3
v 0.1 1.6 0.3
v 0.3 1.6 0.3
v 0.4 1.6 0.3
v 0.7 1.6 0.3
v 0.8 1.6 0.3
v -0.7 1.6 0.2
v -0.6 1.6 0.2
v -0.5 1.6 0.2
v -0.1 1.6 0.2
v 0.1 1.6 0.2
v 0.5 1.6 0.2
v 0.6 1.6 0.2
v 0.7 1.6 0.2
v -0.5 1.6 0.1
v -0.4 1.6 0.1
v -0.3 1.6 0.1
v -0.2 1.6 0.1
v -0.1 1.6 0.1
v 0.1 1.6 0.1
v 0.2 1.6 0.1
v 0.3 1.6 0.1
v 0.4 1.6 0.1
v 0.5 1.6 0.1
v -0.5 1.6 -0.1
v -0.4 1.6 -0.1
v -0.3 1.6 -0.1
v -0.2 1.6 -0.1
v -0.1 1.6 -0.1
v 0.1 1.6 -0.1
v 0.2 1.6 -0.1
v 0.3 1.6 -0.1
v 0.4 1.6 -0.1
v 0.5 1.6 -0.1
v -0.7 1.6 -0.2
v -0.6 1.6 -0.2
v -0.5 1.6 -0.2
v -0.1 1.6 -0.2
v 0.1 1.6 -0.2
v 0.5 1.6 -0.2
v 0.6 1.6 -0.2
v 0.7 1.6 -0.2
v -0.8 1.6 -0.3
v -0.7 1.6 -0.3
v -0.4 1.6 -0.3
v -0.3 1.6 -0.3
v -0.1 1.6 -0.3
v 0.1 1.6 -0.3
v 0.3 1.6 -0.3
v 0.4 1.6 -0.3
v 0.7 1.6 -0.3
v 0.8 1.6 -0.3
v -0.6 1.6 -0.4
v -0.5 1.6 -0.4
v -0.4 1.6 -0.4
v -0.3 1.6 -0.4
v -0.1 1.6 -0.4
v 0.1 1.6 -0.4
v 0.3 1.6 -0.4
v 0.4 1.6 -0.4
v 0.5 1.6 -0.4
v 0.6 1.6 -0.4
v -0.7 1.6 -0.5
v -0.6 1.6 -0.5
v -0.5 1.6 -0.5
v -0.4 1.6 -0.5
v -0.2 1.6 -0.5
v -0.1 1.6 -0.5
v 0.1 1.6 -0.5
v 0.2 1.6 -0.5
v 0.4 1.6 -0.5
v 0.5 1.6 -0.5
v 0.6 1.6 -0.5
v 0.7 1.6 -0.5
v -0.6 1.6 -0.6
v -0.5 1.6 -0.6
v -0.4 1.6 -0.6
v -0.2 1.6 -0.6
v 0.2 1.6 -0.6
v 0.4 1.6 -0.6
v 0.5 1.6 -0.6
v 0.6 1.6 -0.6
v -0.5 1.6 -0.7
v -0.3 1.6 -0.7
v -0.2 1.6 -0.7
v 0.2 1.6 -0.7
v 0.3 1.6 -0.7
v 0.5 1.6 -0.7
v -0.3 1.6 -0.8
v 0.3 1.6 -0.8

# faces
f 3/5/1 2/5/1 1/5/1
f 4/5/1 2/5/1 3/5/1
f 9/5/1 6/5/1 5/5/1
f 10/5/1 6/5/1 9/5/1
f 11/5/1 8/5/1 7/5/1
f 12/5/1 8/5/1 11/5/1
f 17/5/1 14/5/1 13/5/1
f 18/5/1 14/5/1 17/5/1
f 19/5/1 16/5/1 15/5/1
f 20/5/1 16/5/1 19/5/1
f 25/5/1 22/5/1 21/5/1
f 26/5/1 22/5/1 25/5/1
f 27/5/1 24/5/1 23/5/1
f 28/5/1 24/5/1 27/5/1
f 33/5/1 30/5/1 29/5/1
f 34/5/1 30/5/1 33/5/1
f 35/5/1 32/5/1 31/5/1
f 36/5/1 32/5/1 35/5/1
f 37/5/2 38/5/2 41/5/2
f 41/5/2 38/5/2 42/5/2
f 39/5/2 40/5/2 43/5/2
f 43/5/2 40/5/2 44/5/2
f 45/5/2 46/5/2 49/5/2
f 49/5/2 46/5/2 50/5/2
f 47/5/2 48/5/2 51/5/2
f 51/5/2 48/5/2 52/5/2
f 53/5/2 54/5/2 57/5/2
f 57/5/2 54/5/2 58/5/2
f 55/5/2 56/5/2 59/5/2
f 59/5/2 56/5/2 60/5/2
f 61/5/2 62/5/2 65/5/2
f 65/5/2 62/5/2 66/5/2
f 63/5/2 64/5/2 67/5/2
f 67/5/2 64/5/2 68/5/2
f 69/5/2 70/5/2 71/5/2
f 71/5/2 70/5/2 72/5/2
f 75/5/3 74/5/3 73/5/3
f 76/5/3 74/5/3 75/5/3
f 79/5/3 78/5/3 77/5/3
f 80/5/3 78/5/3 79/5/3
f 83/5/3 82/5/3 81/5/3
f 84/5/3 82/5/3 83/5/3
f 87/5/3 86/5/3 85/5/3
f 88/5/3 86/5/3 87/5/3
f 91/5/3 90/5/3 89/5/3
f 92/5/3 90/5/3 91/5/3
f 95/5/3 94/5/3 93/5/3
f 96/5/3 94/5/3 95/5/3
f 99/5/3 98/5/3 97/5/3
f 100/5/3 98/5/3 99/5/3
f 103/5/3 102/5/3 101/5/3
f 104/5/3 102/5/3 103/5/3
f 107/5/3 106/5/3 105/5/3
f 108/5/3 106/5/3 107/5/3
f 109/5/4 110/5/4 111/5/4
f 111/5/4 110/5/4 112/5/4
f 113/5/4 114/5/4 115/5/4
f 115/5/4 114/5/4 116/5/4
f 117/5/4 118/5/4 119/5/4
f 119/5/4 118/5/4 120/5/4
f 121/5/4 122/5/4 123/5/4
f 123/5/4 122/5/4 124/5/4
f 125/5/4 126/5/4 127/5/4
f 127/5/4 126/5/4 128/5/4
f 129/5/4 130/5/4 131/5/4
f 131/5/4 130/5/4 132/5/4
f 133/5/4 134/5/4 135/5/4
f 135/5/4 134/5/4 136/5/4
f 137/5/4 138/5/4 139/5/4
f 139/5/4 138/5/4 140/5/4
f 141/5/4 142/5/4 143/5/4
f 143/5/4 142/5/4 144/5/4
f 148/5/5 146/5/5 145/5/5
f 149/5/5 146/5/5 148/5/5
f 152/5/5 148/5/5 147/5/5
f 152/5/5 150/5/5 149/5/5
f 152/5/5 149/5/5 148/5/5
f 153/5/5 150/5/5 152/5/5
f 156/5/5 152/5/5 151/5/5
f 156/5/5 154/5/5 153/5/5
f 156/5/5 153/5/5 152/5/5
f 157/5/5 154/5/5 156/5/5
f 160/5/5 156/5/5 155/5/5
f 160/5/5 158/5/5 157/5/5
f 160/5/5 157/5/5 156/5/5
f 161/5/5 158/5/5 160/5/5
f 163/5/5 160/5/5 159/5/5
f 163/5/5 162/5/5 161/5/5
f 163/5/5 161/5/5 160/5/5
f 164/5/5 162/5/5 163/5/5
f 165/5/5 162/5/5 164/5/5
f 166/5/5 162/5/5 165/5/5
f 167/5/5 165/5/5 164/5/5
f 168/5/5 165/5/5 167/5/5
f 169/5/5 165/5/5 168/5/5
f 170/5/5 165/5/5 169/5/5
f 171/5/5 169/5/5 168/5/5
f 172/5/5 169/5/5 171/5/5
f 173/5/5 169/5/5 172/5/5
f 174/5/5 169/5/5 173/5/5
f 175/5/5 173/5/5 172/5/5
f 176/5/5 173/5/5 175/5/5
f 177/5/5 173/5/5 176/5/5
f 178/5/5 173/5/5 177/5/5
f 179/5/5 177/5/5 176/5/5
f 180/5/5 177/5/5 179/5/5
f 181/5/6 182/5/6 184/5/6
f 184/5/6 182/5/6 185/5/6
f 185/5/6 182/5/6 186/5/6
f 186/5/6 182/5/6 187/5/6
f 183/5/6 184/5/6 190/5/6
f 184/5/6 185/5/6 190/5/6
f 190/5/6 185/5/6 191/5/6
f 185/4/6 186/4/6 192/4/6
f 191/5/6 185/5/6 192/5/6
f 187/5/6 188/5/6 193/5/6
f 192/4/6 186/4/6 193/4/6
f 186/5/6 187/5/6 193/5/6
f 193/5/6 188/5/6 194/5/6
f 194/5/6 188/5/6 195/5/6
f 189/5/6 190/5/6 198/5/6
f 190/5/6 191/5/6 198/5/6
f 198/5/6 191/5/6 199/5/6
f 191/4/6 192/4/6 200/4/6
f 199/5/6 191/5/6 200/5/6
f 192/5/6 193/5/6 201/5/6
f 200/4/6 192/4/6 201/4/6
f 201/5/6 193/5/6 202/5/6
f 202/5/6 193/5/6 203/5/6
f 193/4/6 194/4/6 204/4/6
f 203/5/6 193/5/6 204/5/6
f 195/5/6 196/5/6 205/5/6
f 204/4/6 194/4/6 205/4/6
f 194/5/6 195/5/6 205/5/6
f 205/5/6 196/5/6 206/5/6
f 206/5/6 196/5/6 207/5/6
f 198/5/6 199/5/6 209/5/6
f 197/5/6 198/5/6 209/5/6
f 199/4/6 200/4/6 210/4/6
f 209/5/6 199/5/6 210/5/6
f 201/5/6 202/5/6 211/5/6
f 210/4/6 200/4/6 211/4/6
f 200/5/6 201/5/6 211/5/6
f 211/5/6 202/5/6 212/5/6
f 202/3/6 203/3/6 213/3/6
f 212/5/6 202/5/6 213/5/6
f 203/5/6 204/5/6 214/5/6
f 213/3/6 203/3/6 214/3/6
f 204/5/6 205/5/6 214/5/6
f 214/5/6 205/5/6 215/5/6
f 205/4/6 206/4/6 216/4/6
f 215/5/6 205/5/6 216/5/6
f 207/5/6 208/5/6 217/5/6
f 216/4/6 206/4/6 217/4/6
f 206/5/6 207/5/6 217/5/6
f 217/5/6 208/5/6 218/5/6
f 197/5/6 209/5/6 220/5/6
f 211/5/6 212/5/6 221/5/6
f 210/5/6 211/5/6 221/5/6
f 212/3/6 213/3/6 222/3/6
f 221/5/6 212/5/6 222/5/6
f 213/5/6 214/5/6 223/5/6
f 222/3/6 213/3/6 223/3/6
f 214/3/6 215/3/6 224/3/6
f 223/5/6 214/5/6 224/5/6
f 215/5/6 216/5/6 225/5/6
f 224/3/6 215/3/6 225/3/6
f 216/5/6 217/5/6 225/5/6
f 225/5/6 217/5/6 226/5/6
f 218/5/6 208/5/6 227/5/6
f 219/5/6 220/5/6 229/5/6
f 220/5/6 209/5/6 229/5/6
f 209/4/6 210/4/6 230/4/6
f 229/5/6 209/5/6 230/5/6
f 210/5/6 221/5/6 231/5/6
f 230/4/6 210/4/6 231/4/6
f 223/5/6 224/5/6 232/5/6
f 222/5/6 223/5/6 232/5/6
f 224/5/6 225/5/6 232/5/6
f 232/5/6 225/5/6 233/5/6
f 226/5/6 217/5/6 234/5/6
f 217/4/6 218/4/6 234/4/6
f 227/5/6 228/5/6 235/5/6
f 234/4/6 218/4/6 235/4/6
f 218/5/6 227/5/6 235/5/6
f 235/5/6 228/5/6 236/5/6
f 231/5/6 221/5/6 237/5/6
f 230/5/6 231/5/6 237/5/6
f 221/3/6 222/3/6 238/3/6
f 237/5/6 221/5/6 238/5/6
f 222/5/6 232/5/6 239/5/6
f 238/3/6 222/3/6 239/3/6
f 239/5/6 232/5/6 240/5/6
f 232/2/6 233/2/6 241/2/6
f 240/5/6 232/5/6 241/5/6
f 233/5/6 225/5/6 242/5/6
f 241/2/6 233/2/6 242/2/6
f 242/5/6 225/5/6 243/5/6
f 225/3/6 226/3/6 244/3/6
f 243/5/6 225/5/6 244/5/6
f 226/5/6 234/5/6 245/5/6
f 244/3/6 226/3/6 245/3/6
f 234/5/6 235/5/6 245/5/6
f 245/5/6 235/5/6 246/5/6
f 230/5/6 237/5/6 247/5/6
f 237/3/6 238/3/6 247/3/6
f 239/5/6 240/5/6 248/5/6
f 247/3/6 238/3/6 248/3/6
f 238/5/6 239/5/6 248/5/6
f 248/5/6 240/5/6 249/5/6
f 240/2/6 241/2/6 250/2/6
f 249/5/6 240/5/6 250/5/6
f 241/1/6 242/1/6 251/1/6
f 250/2/6 241/2/6 251/2/6
f 242/2/6 243/2/6 252/2/6
f 251/1/6 242/1/6 252/1/6
f 243/5/6 244/5/6 253/5/6
f 252/2/6 243/2/6 253/2/6
f 244/5/6 245/5/6 253/5/6
f 253/5/6 245/5/6 254/5/6
f 245/3/6 246/3/6 255/3/6
f 254/5/6 245/5/6 255/5/6
f 246/5/6 235/5/6 256/5/6
f 255/3/6 246/3/6 256/3/6
f 229/4/6 230/4/6 257/4/6
f 219/5/6 229/5/6 257/5/6
f 230/5/6 247/5/6 258/5/6
f 257/4/6 230/4/6 258/4/6
f 247/5/6 248/5/6 258/5/6
f 258/5/6 248/5/6 259/5/6
f 251/2/6 252/2/6 260/2/6
f 250/5/6 251/5/6 260/5/6
f 249/5/6 250/5/6 260/5/6
f 253/5/6 254/5/6 261/5/6
f 260/2/6 252/2/6 261/2/6
f 252/5/6 253/5/6 261/5/6
f 256/5/6 235/5/6 262/5/6
f 255/5/6 256/5/6 262/5/6
f 235/4/6 236/4/6 263/4/6
f 262/5/6 235/5/6 263/5/6
f 236/5/6 228/5/6 264/5/6
f 263/4/6 236/4/6 264/4/6
f 219/5/6 257/5/6 265/5/6
f 257/5/6 258/5/6 265/5/6
f 265/5/6 258/5/6 266/5/6
f 248/3/6 249/3/6 267/3/6
f 259/5/6 248/5/6 267/5/6
f 260/5/6 261/5/6 268/5/6
f 267/3/6 249/3/6 268/3/6
f 249/5/6 260/5/6 268/5/6
f 268/5/6 261/5/6 269/5/6
f 261/5/6 254/5/6 270/5/6
f 269/5/6 261/5/6 270/5/6
f 254/3/6 255/3/6 271/3/6
f 270/5/6 254/5/6 271/5/6
f 255/5/6 262/5/6 272/5/6
f 271/3/6 255/3/6 272/3/6
f 264/5/6 228/5/6 273/5/6
f 263/5/6 264/5/6 273/5/6
f 273/5/6 228/5/6 274/5/6
f 266/5/6 258/5/6 275/5/6
f 258/4/6 259/4/6 275/4/6
f 259/5/6 267/5/6 276/5/6
f 275/4/6 259/4/6 276/4/6
f 267/5/6 268/5/6 276/5/6
f 276/5/6 268/5/6 277/5/6
f 268/3/6 269/3/6 278/3/6
f 277/5/6 268/5/6 278/5/6
f 269/5/6 270/5/6 279/5/6
f 278/3/6 269/3/6 279/3/6
f 270/3/6 271/3/6 280/3/6
f 279/5/6 270/5/6 280/5/6
f 271/5/6 272/5/6 281/5/6
f 280/3/6 271/3/6 281/3/6
f 272/5/6 262/5/6 282/5/6
f 281/5/6 272/5/6 282/5/6
f 262/4/6 263/4/6 283/4/6
f 282/5/6 262/5/6 283/5/6
f 263/5/6 273/5/6 284/5/6
f 283/4/6 263/4/6 284/4/6
f 266/5/6 275/5/6 285/5/6
f 275/5/6 276/5/6 285/5/6
f 285/5/6 276/5/6 286/5/6
f 276/4/6 277/4/6 287/4/6
f 286/5/6 276/5/6 287/5/6
f 277/5/6 278/5/6 288/5/6
f 287/4/6 277/4/6 288/4/6
f 278/5/6 279/5/6 288/5/6
f 288/5/6 279/5/6 289/5/6
f 279/3/6 280/3/6 290/3/6
f 289/5/6 279/5/6 290/5/6
f 281/5/6 282/5/6 291/5/6
f 290/3/6 280/3/6 291/3/6
f 280/5/6 281/5/6 291/5/6
f 291/5/6 282/5/6 292/5/6
f 282/4/6 283/4/6 293/4/6
f 292/5/6 282/5/6 293/5/6
f 283/5/6 284/5/6 294/5/6
f 293/4/6 283/4/6 294/4/6
f 284/5/6 273/5/6 295/5/6
f 294/5/6 284/5/6 295/5/6
f 295/5/6 273/5/6 296/5/6
f 286/5/6 287/5/6 297/5/6
f 287/5/6 288/5/6 297/5/6
f 297/5/6 288/5/6 298/5/6
f 288/4/6 289/4/6 299/4/6
f 298/5/6 288/5/6 299/5/6
f 289/5/6 290/5/6 300/5/6
f 299/4/6 289/4/6 300/4/6
f 291/5/6 292/5/6 300/5/6
f 290/5/6 291/5/6 300/5/6
f 292/4/6 293/4/6 301/4/6
f 300/5/6 292/5/6 301/5/6
f 293/5/6 294/5/6 302/5/6
f 301/4/6 293/4/6 302/4/6
f 294/5/6 295/5/6 302/5/6
f 302/5/6 295/5/6 303/5/6
f 303/5/6 295/5/6 304/5/6
f 298/5/6 299/5/6 305/5/6
f 299/5/6 300/5/6 305/5/6
f 305/5/6 300/5/6 306/5/6
f 300/4/6 301/4/6 307/4/6
f 306/5/6 300/5/6 307/5/6
f 302/5/6 303/5/6 308/5/6
f 307/4/6 301/4/6 308/4/6
f 301/5/6 302/5/6 308/5/6
f 308/5/6 303/5/6 309/5/6
f 309/5/6 303/5/6 310/5/6
f 306/5/6 307/5/6 311/5/6
f 308/5/6 309/5/6 311/5/6
f 307/5/6 308/5/6 311/5/6
f 311/5/6 309/5/6 312/5/6
