# MagicaVoxel @ Ephtracy

# group
o 

# material
mtllib player.vox.mtl
usemtl palette

# normals
vn -1 0 0
vn 1 0 0
vn 0 0 1
vn 0 0 -1
vn 0 -1 0
vn 0 1 0

# texcoords
vt 0.197266 0.5
vt 0.224609 0.5
vt 0.232422 0.5
vt 0.236328 0.5
vt 0.599609 0.5
vt 0.791016 0.5
vt 0.958984 0.5

# verts
v -0.4 0.3 0.2
v -0.4 0.3 -0.1
v -0.4 0.6 0.2
v -0.4 0.6 -0.1
v -0.4 0.7 0.2
v -0.4 0.7 -0.1
v -0.4 0.8 0.2
v -0.4 0.8 -0.1
v -0.4 0.9 0.2
v -0.4 0.9 -0.1
v -0.3 1 0.2
v -0.3 1 -0.2
v -0.3 1.1 0.3
v -0.3 1.1 0.2
v -0.3 1.1 0.1
v -0.3 1.1 0
v -0.3 1.2 0.2
v -0.3 1.2 0.1
v -0.3 1.2 0
v -0.3 1.3 0.2
v -0.3 1.3 0.1
v -0.3 1.3 -0.1
v -0.3 1.3 -0.2
v -0.3 1.4 0.2
v -0.3 1.4 0.1
v -0.3 1.4 0
v -0.3 1.4 -0.1
v -0.3 1.4 -0.2
v -0.3 1.5 0.3
v -0.3 1.5 0
v -0.3 1.5 -0.1
v -0.3 1.5 -0.2
v -0.2 0 0.3
v -0.2 0 -0.2
v -0.2 0.3 0.2
v -0.2 0.3 -0.1
v -0.2 0.4 0.3
v -0.2 0.4 0.2
v -0.2 0.4 -0.1
v -0.2 0.4 -0.2
v -0.2 0.5 0.3
v -0.2 0.5 0.2
v -0.2 0.5 -0.1
v -0.2 0.5 -0.2
v -0.2 0.6 0.3
v -0.2 0.6 0.2
v -0.2 0.6 -0.1
v -0.2 0.6 -0.2
v -0.2 0.7 0.3
v -0.2 0.7 0.2
v -0.2 0.7 -0.1
v -0.2 0.7 -0.2
v -0.2 0.8 0.3
v -0.2 0.8 0.2
v -0.2 0.8 -0.1
v -0.2 0.8 -0.2
v -0.2 0.9 0.3
v -0.2 0.9 0.2
v -0.2 0.9 -0.1
v -0.2 0.9 -0.2
v -0.2 1 0.4
v -0.2 1 0.2
v -0.2 1 -0.1
v -0.2 1.1 0.3
v -0.2 1.1 0.2
v -0.2 1.2 -0.2
v -0.2 1.2 -0.3
v -0.2 1.3 -0.2
v -0.2 1.3 -0.3
v -0.2 1.4 0.4
v -0.2 1.4 0.3
v -0.2 1.4 -0.2
v -0.2 1.4 -0.3
v -0.2 1.5 0.2
v -0.2 1.5 0
v -0.2 1.5 -0.1
v -0.2 1.6 0.2
v -0.2 1.6 -0.1
v -0.1 1.1 -0.2
v -0.1 1.1 -0.3
v -0.1 1.2 -0.2
v -0.1 1.2 -0.3
v 0.1 1.1 -0.2
v 0.1 1.1 -0.3
v 0.1 1.2 -0.2
v 0.1 1.2 -0.3
v 0.2 0 0.3
v 0.2 0 -0.2
v 0.2 0.3 0.2
v 0.2 0.3 -0.1
v 0.2 0.4 0.3
v 0.2 0.4 0.2
v 0.2 0.4 -0.1
v 0.2 0.4 -0.2
v 0.2 0.5 0.3
v 0.2 0.5 0.2
v 0.2 0.5 -0.1
v 0.2 0.5 -0.2
v 0.2 0.6 0.3
v 0.2 0.6 0.2
v 0.2 0.6 -0.1
v 0.2 0.6 -0.2
v 0.2 0.7 0.3
v 0.2 0.7 0.2
v 0.2 0.7 -0.1
v 0.2 0.7 -0.2
v 0.2 0.8 0.3
v 0.2 0.8 0.2
v 0.2 0.8 -0.1
v 0.2 0.8 -0.2
v 0.2 0.9 0.3
v 0.2 0.9 0.2
v 0.2 0.9 -0.1
v 0.2 0.9 -0.2
v 0.2 1 0.4
v 0.2 1 0.2
v 0.2 1 -0.1
v 0.2 1.1 0.3
v 0.2 1.1 0.2
v 0.2 1.2 -0.2
v 0.2 1.2 -0.3
v 0.2 1.3 -0.2
v 0.2 1.4 0.4
v 0.2 1.4 0.3
v 0.2 1.4 -0.2
v 0.2 1.4 -0.3
v 0.2 1.5 0.2
v 0.2 1.5 0.1
v 0.2 1.5 0
v 0.2 1.5 -0.1
v 0.2 1.6 0.2
v 0.2 1.6 0.1
v 0.2 1.6 0
v 0.2 1.6 -0.1
v 0.3 1 0.2
v 0.3 1 -0.2
v 0.3 1.1 0.3
v 0.3 1.1 0.2
v 0.3 1.1 0.1
v 0.3 1.1 0
v 0.3 1.1 -0.1
v 0.3 1.2 0.2
v 0.3 1.2 0.1
v 0.3 1.2 0
v 0.3 1.2 -0.1
v 0.3 1.3 0.2
v 0.3 1.3 0.1
v 0.3 1.3 -0.1
v 0.3 1.3 -0.2
v 0.3 1.4 0.3
v 0.3 1.4 0.2
v 0.3 1.4 0.1
v 0.3 1.4 -0.1
v 0.3 1.4 -0.2
v 0.3 1.5 0.3
v 0.3 1.5 0.2
v 0.3 1.5 -0.1
v 0.3 1.5 -0.2
v 0.4 0.3 0.2
v 0.4 0.3 -0.1
v 0.4 0.6 0.2
v 0.4 0.6 -0.1
v 0.4 0.7 0.2
v 0.4 0.7 -0.1
v 0.4 0.8 0.2
v 0.4 0.8 -0.1
v 0.4 0.9 0.2
v 0.4 0.9 -0.1
v -0.2 1 0.4
v -0.2 1.4 0.4
v 0.2 1 0.4
v 0.2 1.4 0.4
v -0.3 1.1 0.3
v -0.3 1.5 0.3
v -0.2 0 0.3
v -0.2 0.4 0.3
v -0.2 0.5 0.3
v -0.2 0.6 0.3
v -0.2 0.7 0.3
v -0.2 0.8 0.3
v -0.2 0.9 0.3
v -0.2 1.1 0.3
v -0.2 1.4 0.3
v 0.2 0 0.3
v 0.2 0.4 0.3
v 0.2 0.5 0.3
v 0.2 0.6 0.3
v 0.2 0.7 0.3
v 0.2 0.8 0.3
v 0.2 0.9 0.3
v 0.2 1.1 0.3
v 0.2 1.4 0.3
v 0.2 1.5 0.3
v 0.3 1.1 0.3
v 0.3 1.4 0.3
v 0.3 1.5 0.3
v -0.4 0.3 0.2
v -0.4 0.6 0.2
v -0.4 0.7 0.2
v -0.4 0.8 0.2
v -0.4 0.9 0.2
v -0.3 1 0.2
v -0.3 1.1 0.2
v -0.2 0.3 0.2
v -0.2 0.4 0.2
v -0.2 0.5 0.2
v -0.2 0.6 0.2
v -0.2 0.7 0.2
v -0.2 0.8 0.2
v -0.2 0.9 0.2
v -0.2 1 0.2
v -0.2 1.1 0.2
v -0.2 1.5 0.2
v -0.2 1.6 0.2
v -0.1 0.9 0.2
v -0.1 1 0.2
v -0.1 1.5 0.2
v -0.1 1.6 0.2
v 0 1.5 0.2
v 0 1.6 0.2
v 0.1 0.9 0.2
v 0.1 1 0.2
v 0.2 0.3 0.2
v 0.2 0.4 0.2
v 0.2 0.5 0.2
v 0.2 0.6 0.2
v 0.2 0.7 0.2
v 0.2 0.8 0.2
v 0.2 0.9 0.2
v 0.2 1 0.2
v 0.2 1.1 0.2
v 0.2 1.5 0.2
v 0.2 1.6 0.2
v 0.3 1 0.2
v 0.3 1.1 0.2
v 0.4 0.3 0.2
v 0.4 0.6 0.2
v 0.4 0.7 0.2
v 0.4 0.8 0.2
v 0.4 0.9 0.2
v -0.4 0.3 -0.1
v -0.4 0.6 -0.1
v -0.4 0.7 -0.1
v -0.4 0.8 -0.1
v -0.4 0.9 -0.1
v -0.2 0.3 -0.1
v -0.2 0.4 -0.1
v -0.2 0.5 -0.1
v -0.2 0.6 -0.1
v -0.2 0.7 -0.1
v -0.2 0.8 -0.1
v -0.2 0.9 -0.1
v -0.2 1 -0.1
v -0.2 1.5 -0.1
v -0.2 1.6 -0.1
v 0.1 1 -0.1
v 0.2 0.3 -0.1
v 0.2 0.4 -0.1
v 0.2 0.5 -0.1
v 0.2 0.6 -0.1
v 0.2 0.7 -0.1
v 0.2 0.8 -0.1
v 0.2 0.9 -0.1
v 0.2 1 -0.1
v 0.2 1.5 -0.1
v 0.2 1.6 -0.1
v 0.4 0.3 -0.1
v 0.4 0.6 -0.1
v 0.4 0.7 -0.1
v 0.4 0.8 -0.1
v 0.4 0.9 -0.1
v -0.3 1 -0.2
v -0.3 1.3 -0.2
v -0.3 1.4 -0.2
v -0.3 1.5 -0.2
v -0.2 0 -0.2
v -0.2 0.4 -0.2
v -0.2 0.5 -0.2
v -0.2 0.6 -0.2
v -0.2 0.7 -0.2
v -0.2 0.8 -0.2
v -0.2 0.9 -0.2
v -0.2 1.2 -0.2
v -0.2 1.3 -0.2
v -0.2 1.4 -0.2
v -0.1 1.1 -0.2
v -0.1 1.2 -0.2
v -0.1 1.4 -0.2
v 0 1.1 -0.2
v 0.1 1 -0.2
v 0.1 1.1 -0.2
v 0.1 1.2 -0.2
v 0.2 0 -0.2
v 0.2 0.4 -0.2
v 0.2 0.5 -0.2
v 0.2 0.6 -0.2
v 0.2 0.7 -0.2
v 0.2 0.8 -0.2
v 0.2 0.9 -0.2
v 0.2 1 -0.2
v 0.2 1.1 -0.2
v 0.2 1.2 -0.2
v 0.2 1.3 -0.2
v 0.2 1.4 -0.2
v 0.2 1.5 -0.2
v 0.3 1 -0.2
v 0.3 1.3 -0.2
v 0.3 1.4 -0.2
v 0.3 1.5 -0.2
v -0.2 1.2 -0.3
v -0.2 1.3 -0.3
v -0.2 1.4 -0.3
v -0.1 1.1 -0.3
v -0.1 1.2 -0.3
v -0.1 1.3 -0.3
v -0.1 1.4 -0.3
v 0 1.1 -0.3
v 0 1.2 -0.3
v 0.1 1.1 -0.3
v 0.1 1.2 -0.3
v 0.2 1.2 -0.3
v 0.2 1.4 -0.3
v -0.2 0 0.3
v 0.2 0 0.3
v -0.2 0 -0.2
v 0.2 0 -0.2
v -0.4 0.3 0.2
v -0.2 0.3 0.2
v 0.2 0.3 0.2
v 0.4 0.3 0.2
v -0.4 0.3 -0.1
v -0.2 0.3 -0.1
v 0.2 0.3 -0.1
v 0.4 0.3 -0.1
v -0.2 1 0.4
v 0.2 1 0.4
v -0.3 1 0.2
v -0.2 1 0.2
v -0.1 1 0.2
v 0.1 1 0.2
v 0.2 1 0.2
v 0.3 1 0.2
v -0.2 1 -0.1
v 0.1 1 -0.1
v 0.2 1 -0.1
v -0.3 1 -0.2
v 0.1 1 -0.2
v 0.2 1 -0.2
v 0.3 1 -0.2
v -0.3 1.1 0.3
v -0.2 1.1 0.3
v 0.2 1.1 0.3
v 0.3 1.1 0.3
v -0.3 1.1 0.2
v -0.2 1.1 0.2
v 0.2 1.1 0.2
v 0.3 1.1 0.2
v -0.1 1.1 -0.2
v 0 1.1 -0.2
v 0.1 1.1 -0.2
v -0.1 1.1 -0.3
v 0 1.1 -0.3
v 0.1 1.1 -0.3
v -0.2 1.2 -0.2
v -0.1 1.2 -0.2
v 0.1 1.2 -0.2
v 0.2 1.2 -0.2
v -0.2 1.2 -0.3
v -0.1 1.2 -0.3
v 0.1 1.2 -0.3
v 0.2 1.2 -0.3
v -0.2 0.9 0.3
v 0.2 0.9 0.3
v -0.4 0.9 0.2
v -0.2 0.9 0.2
v -0.1 0.9 0.2
v 0.1 0.9 0.2
v 0.2 0.9 0.2
v 0.4 0.9 0.2
v -0.4 0.9 -0.1
v -0.2 0.9 -0.1
v 0.2 0.9 -0.1
v 0.4 0.9 -0.1
v -0.2 0.9 -0.2
v 0.2 0.9 -0.2
v -0.2 1.4 0.4
v 0.2 1.4 0.4
v -0.2 1.4 0.3
v 0.2 1.4 0.3
v -0.2 1.4 -0.2
v -0.1 1.4 -0.2
v 0.2 1.4 -0.2
v -0.2 1.4 -0.3
v -0.1 1.4 -0.3
v 0.2 1.4 -0.3
v -0.3 1.5 0.3
v 0.2 1.5 0.3
v 0.3 1.5 0.3
v -0.2 1.5 0.2
v -0.1 1.5 0.2
v 0 1.5 0.2
v 0.2 1.5 0.2
v 0.3 1.5 0.2
v 0.2 1.5 0.1
v -0.3 1.5 0
v -0.2 1.5 0
v 0.2 1.5 0
v -0.3 1.5 -0.1
v -0.2 1.5 -0.1
v 0.2 1.5 -0.1
v 0.3 1.5 -0.1
v -0.3 1.5 -0.2
v 0.2 1.5 -0.2
v 0.3 1.5 -0.2
v -0.2 1.6 0.2
v -0.1 1.6 0.2
v 0 1.6 0.2
v 0.2 1.6 0.2
v -0.1 1.6 0.1
v 0 1.6 0.1
v 0.1 1.6 0.1
v 0.2 1.6 0.1
v 0.1 1.6 0
v 0.2 1.6 0
v -0.2 1.6 -0.1
v 0.2 1.6 -0.1

# faces
f 3/4/1 2/4/1 1/4/1
f 4/4/1 2/4/1 3/4/1
f 5/7/1 4/7/1 3/7/1
f 6/7/1 4/7/1 5/7/1
f 7/5/1 6/5/1 5/5/1
f 8/5/1 6/5/1 7/5/1
f 9/7/1 8/7/1 7/7/1
f 10/7/1 8/7/1 9/7/1
f 14/1/1 12/1/1 11/1/1
f 15/1/1 12/1/1 14/1/1
f 16/1/1 12/1/1 15/1/1
f 17/1/1 14/1/1 13/1/1
f 17/3/1 15/3/1 14/3/1
f 18/2/1 16/2/1 15/2/1
f 18/3/1 15/3/1 17/3/1
f 19/1/1 12/1/1 16/1/1
f 19/2/1 16/2/1 18/2/1
f 20/1/1 18/1/1 17/1/1
f 20/1/1 17/1/1 13/1/1
f 20/1/1 19/1/1 18/1/1
f 21/1/1 19/1/1 20/1/1
f 22/1/1 12/1/1 19/1/1
f 22/1/1 19/1/1 21/1/1
f 23/1/1 12/1/1 22/1/1
f 24/2/1 21/2/1 20/2/1
f 24/1/1 20/1/1 13/1/1
f 25/1/1 22/1/1 21/1/1
f 25/2/1 21/2/1 24/2/1
f 26/1/1 22/1/1 25/1/1
f 27/3/1 23/3/1 22/3/1
f 27/1/1 22/1/1 26/1/1
f 28/3/1 23/3/1 27/3/1
f 29/1/1 26/1/1 25/1/1
f 29/1/1 24/1/1 13/1/1
f 29/1/1 25/1/1 24/1/1
f 30/2/1 27/2/1 26/2/1
f 30/1/1 26/1/1 29/1/1
f 31/1/1 28/1/1 27/1/1
f 31/2/1 27/2/1 30/2/1
f 32/1/1 28/1/1 31/1/1
f 35/6/1 34/6/1 33/6/1
f 36/6/1 34/6/1 35/6/1
f 37/6/1 35/6/1 33/6/1
f 38/6/1 35/6/1 37/6/1
f 39/6/1 34/6/1 36/6/1
f 40/6/1 34/6/1 39/6/1
f 41/5/1 38/5/1 37/5/1
f 42/5/1 38/5/1 41/5/1
f 43/5/1 40/5/1 39/5/1
f 44/5/1 40/5/1 43/5/1
f 45/7/1 42/7/1 41/7/1
f 46/7/1 42/7/1 45/7/1
f 47/7/1 44/7/1 43/7/1
f 48/7/1 44/7/1 47/7/1
f 49/5/1 46/5/1 45/5/1
f 50/5/1 46/5/1 49/5/1
f 51/5/1 48/5/1 47/5/1
f 52/5/1 48/5/1 51/5/1
f 53/7/1 50/7/1 49/7/1
f 54/7/1 50/7/1 53/7/1
f 55/7/1 52/7/1 51/7/1
f 56/7/1 52/7/1 55/7/1
f 57/5/1 54/5/1 53/5/1
f 58/5/1 54/5/1 57/5/1
f 59/5/1 56/5/1 55/5/1
f 60/5/1 56/5/1 59/5/1
f 62/5/1 59/5/1 58/5/1
f 63/5/1 59/5/1 62/5/1
f 64/4/1 62/4/1 61/4/1
f 65/4/1 62/4/1 64/4/1
f 68/1/1 67/1/1 66/1/1
f 69/1/1 67/1/1 68/1/1
f 70/4/1 64/4/1 61/4/1
f 71/4/1 64/4/1 70/4/1
f 72/2/1 69/2/1 68/2/1
f 73/2/1 69/2/1 72/2/1
f 77/1/1 75/1/1 74/1/1
f 77/1/1 76/1/1 75/1/1
f 78/1/1 76/1/1 77/1/1
f 81/3/1 80/3/1 79/3/1
f 82/3/1 80/3/1 81/3/1
f 83/1/2 84/1/2 85/1/2
f 85/1/2 84/1/2 86/1/2
f 87/6/2 88/6/2 89/6/2
f 89/6/2 88/6/2 90/6/2
f 87/6/2 89/6/2 91/6/2
f 91/6/2 89/6/2 92/6/2
f 90/6/2 88/6/2 93/6/2
f 93/6/2 88/6/2 94/6/2
f 91/5/2 92/5/2 95/5/2
f 95/5/2 92/5/2 96/5/2
f 93/5/2 94/5/2 97/5/2
f 97/5/2 94/5/2 98/5/2
f 95/7/2 96/7/2 99/7/2
f 99/7/2 96/7/2 100/7/2
f 97/7/2 98/7/2 101/7/2
f 101/7/2 98/7/2 102/7/2
f 99/5/2 100/5/2 103/5/2
f 103/5/2 100/5/2 104/5/2
f 101/5/2 102/5/2 105/5/2
f 105/5/2 102/5/2 106/5/2
f 103/7/2 104/7/2 107/7/2
f 107/7/2 104/7/2 108/7/2
f 105/7/2 106/7/2 109/7/2
f 109/7/2 106/7/2 110/7/2
f 107/5/2 108/5/2 111/5/2
f 111/5/2 108/5/2 112/5/2
f 109/5/2 110/5/2 113/5/2
f 113/5/2 110/5/2 114/5/2
f 112/5/2 113/5/2 116/5/2
f 116/5/2 113/5/2 117/5/2
f 115/4/2 116/4/2 118/4/2
f 118/4/2 116/4/2 119/4/2
f 120/1/2 121/1/2 122/1/2
f 115/4/2 118/4/2 123/4/2
f 123/4/2 118/4/2 124/4/2
f 122/1/2 121/1/2 125/1/2
f 125/1/2 121/1/2 126/1/2
f 127/1/2 128/1/2 131/1/2
f 128/3/2 129/3/2 132/3/2
f 131/1/2 128/1/2 132/1/2
f 129/1/2 130/1/2 133/1/2
f 132/3/2 129/3/2 133/3/2
f 133/1/2 130/1/2 134/1/2
f 135/1/2 136/1/2 138/1/2
f 138/1/2 136/1/2 139/1/2
f 139/1/2 136/1/2 140/1/2
f 140/1/2 136/1/2 141/1/2
f 137/1/2 138/1/2 142/1/2
f 138/3/2 139/3/2 142/3/2
f 139/1/2 140/1/2 143/1/2
f 142/3/2 139/3/2 143/3/2
f 140/2/2 141/2/2 144/2/2
f 143/1/2 140/1/2 144/1/2
f 141/1/2 136/1/2 145/1/2
f 144/2/2 141/2/2 145/2/2
f 143/1/2 144/1/2 146/1/2
f 142/1/2 143/1/2 146/1/2
f 144/1/2 145/1/2 146/1/2
f 137/1/2 142/1/2 146/1/2
f 146/1/2 145/1/2 147/1/2
f 145/1/2 136/1/2 148/1/2
f 147/1/2 145/1/2 148/1/2
f 148/1/2 136/1/2 149/1/2
f 137/1/2 146/1/2 150/1/2
f 146/2/2 147/2/2 151/2/2
f 150/1/2 146/1/2 151/1/2
f 147/1/2 148/1/2 152/1/2
f 151/2/2 147/2/2 152/2/2
f 148/2/2 149/2/2 153/2/2
f 152/1/2 148/1/2 153/1/2
f 153/2/2 149/2/2 154/2/2
f 150/3/2 151/3/2 155/3/2
f 151/1/2 152/1/2 156/1/2
f 155/3/2 151/3/2 156/3/2
f 152/1/2 153/1/2 156/1/2
f 153/3/2 154/3/2 157/3/2
f 156/1/2 153/1/2 157/1/2
f 157/3/2 154/3/2 158/3/2
f 159/4/2 160/4/2 161/4/2
f 161/4/2 160/4/2 162/4/2
f 161/7/2 162/7/2 163/7/2
f 163/7/2 162/7/2 164/7/2
f 163/5/2 164/5/2 165/5/2
f 165/5/2 164/5/2 166/5/2
f 165/7/2 166/7/2 167/7/2
f 167/7/2 166/7/2 168/7/2
f 171/4/3 170/4/3 169/4/3
f 172/4/3 170/4/3 171/4/3
f 182/1/3 174/1/3 173/1/3
f 183/1/3 174/1/3 182/1/3
f 184/6/3 176/6/3 175/6/3
f 185/5/3 177/5/3 176/5/3
f 185/6/3 176/6/3 184/6/3
f 186/7/3 178/7/3 177/7/3
f 186/5/3 177/5/3 185/5/3
f 187/5/3 179/5/3 178/5/3
f 187/7/3 178/7/3 186/7/3
f 188/7/3 180/7/3 179/7/3
f 188/5/3 179/5/3 187/5/3
f 189/5/3 181/5/3 180/5/3
f 189/7/3 180/7/3 188/7/3
f 190/5/3 181/5/3 189/5/3
f 192/1/3 174/1/3 183/1/3
f 193/1/3 174/1/3 192/1/3
f 194/1/3 192/1/3 191/1/3
f 195/3/3 193/3/3 192/3/3
f 195/1/3 192/1/3 194/1/3
f 196/3/3 193/3/3 195/3/3
f 204/4/3 198/4/3 197/4/3
f 205/4/3 198/4/3 204/4/3
f 206/4/3 198/4/3 205/4/3
f 207/7/3 199/7/3 198/7/3
f 207/4/3 198/4/3 206/4/3
f 208/5/3 200/5/3 199/5/3
f 208/7/3 199/7/3 207/7/3
f 209/7/3 201/7/3 200/7/3
f 209/5/3 200/5/3 208/5/3
f 210/7/3 201/7/3 209/7/3
f 211/1/3 203/1/3 202/1/3
f 212/1/3 203/1/3 211/1/3
f 215/5/3 211/5/3 210/5/3
f 216/5/3 211/5/3 215/5/3
f 217/1/3 214/1/3 213/1/3
f 218/1/3 214/1/3 217/1/3
f 219/2/3 218/2/3 217/2/3
f 220/2/3 218/2/3 219/2/3
f 221/4/3 216/4/3 215/4/3
f 222/4/3 216/4/3 221/4/3
f 229/5/3 222/5/3 221/5/3
f 230/5/3 222/5/3 229/5/3
f 232/1/3 220/1/3 219/1/3
f 233/1/3 220/1/3 232/1/3
f 234/1/3 231/1/3 230/1/3
f 235/1/3 231/1/3 234/1/3
f 236/4/3 224/4/3 223/4/3
f 236/4/3 225/4/3 224/4/3
f 236/4/3 226/4/3 225/4/3
f 237/7/3 227/7/3 226/7/3
f 237/4/3 226/4/3 236/4/3
f 238/5/3 228/5/3 227/5/3
f 238/7/3 227/7/3 237/7/3
f 239/7/3 229/7/3 228/7/3
f 239/5/3 228/5/3 238/5/3
f 240/7/3 229/7/3 239/7/3
f 241/4/4 242/4/4 246/4/4
f 246/4/4 242/4/4 247/4/4
f 247/4/4 242/4/4 248/4/4
f 242/7/4 243/7/4 249/7/4
f 248/4/4 242/4/4 249/4/4
f 243/5/4 244/5/4 250/5/4
f 249/7/4 243/7/4 250/7/4
f 244/7/4 245/7/4 251/7/4
f 250/5/4 244/5/4 251/5/4
f 251/7/4 245/7/4 252/7/4
f 252/5/4 253/5/4 256/5/4
f 252/5/4 256/5/4 263/5/4
f 263/5/4 256/5/4 264/5/4
f 254/1/4 255/1/4 265/1/4
f 265/1/4 255/1/4 266/1/4
f 257/4/4 258/4/4 267/4/4
f 258/4/4 259/4/4 267/4/4
f 259/4/4 260/4/4 267/4/4
f 260/7/4 261/7/4 268/7/4
f 267/4/4 260/4/4 268/4/4
f 261/5/4 262/5/4 269/5/4
f 268/7/4 261/7/4 269/7/4
f 262/7/4 263/7/4 270/7/4
f 269/5/4 262/5/4 270/5/4
f 270/7/4 263/7/4 271/7/4
f 272/1/4 273/1/4 283/1/4
f 273/3/4 274/3/4 284/3/4
f 283/1/4 273/1/4 284/1/4
f 274/1/4 275/1/4 285/1/4
f 284/3/4 274/3/4 285/3/4
f 272/1/4 283/1/4 286/1/4
f 286/1/4 283/1/4 287/1/4
f 285/1/4 275/1/4 288/1/4
f 272/1/4 286/1/4 289/1/4
f 272/1/4 289/1/4 290/1/4
f 290/1/4 289/1/4 291/1/4
f 276/6/4 277/6/4 293/6/4
f 277/5/4 278/5/4 294/5/4
f 293/6/4 277/6/4 294/6/4
f 278/7/4 279/7/4 295/7/4
f 294/5/4 278/5/4 295/5/4
f 279/5/4 280/5/4 296/5/4
f 295/7/4 279/7/4 296/7/4
f 280/7/4 281/7/4 297/7/4
f 296/5/4 280/5/4 297/5/4
f 281/5/4 282/5/4 298/5/4
f 297/7/4 281/7/4 298/7/4
f 298/5/4 282/5/4 299/5/4
f 290/2/4 291/2/4 300/2/4
f 291/1/4 292/1/4 301/1/4
f 300/2/4 291/2/4 301/2/4
f 301/1/4 292/1/4 302/1/4
f 288/1/4 275/1/4 304/1/4
f 304/1/4 275/1/4 305/1/4
f 302/1/4 303/1/4 306/1/4
f 301/1/4 302/1/4 306/1/4
f 300/1/4 301/1/4 306/1/4
f 303/2/4 304/2/4 307/2/4
f 306/1/4 303/1/4 307/1/4
f 304/3/4 305/3/4 308/3/4
f 307/2/4 304/2/4 308/2/4
f 308/3/4 305/3/4 309/3/4
f 310/1/4 311/1/4 314/1/4
f 311/2/4 312/2/4 315/2/4
f 314/1/4 311/1/4 315/1/4
f 315/2/4 312/2/4 316/2/4
f 313/3/4 314/3/4 317/3/4
f 314/1/4 315/1/4 318/1/4
f 317/3/4 314/3/4 318/3/4
f 315/1/4 316/1/4 318/1/4
f 317/1/4 318/1/4 319/1/4
f 318/1/4 316/1/4 320/1/4
f 319/1/4 318/1/4 320/1/4
f 320/1/4 316/1/4 321/1/4
f 321/1/4 316/1/4 322/1/4
f 325/6/5 324/6/5 323/6/5
f 326/6/5 324/6/5 325/6/5
f 331/4/5 328/4/5 327/4/5
f 332/4/5 328/4/5 331/4/5
f 333/4/5 330/4/5 329/4/5
f 334/4/5 330/4/5 333/4/5
f 338/4/5 336/4/5 335/4/5
f 339/4/5 336/4/5 338/4/5
f 340/4/5 336/4/5 339/4/5
f 341/4/5 336/4/5 340/4/5
f 343/1/5 338/1/5 337/1/5
f 345/1/5 342/1/5 341/1/5
f 346/1/5 344/1/5 343/1/5
f 346/1/5 343/1/5 337/1/5
f 347/2/5 345/2/5 344/2/5
f 347/1/5 344/1/5 346/1/5
f 348/1/5 342/1/5 345/1/5
f 348/2/5 345/2/5 347/2/5
f 349/1/5 342/1/5 348/1/5
f 354/1/5 351/1/5 350/1/5
f 355/1/5 351/1/5 354/1/5
f 356/1/5 353/1/5 352/1/5
f 357/1/5 353/1/5 356/1/5
f 361/3/5 359/3/5 358/3/5
f 362/1/5 360/1/5 359/1/5
f 362/3/5 359/3/5 361/3/5
f 363/1/5 360/1/5 362/1/5
f 368/1/5 365/1/5 364/1/5
f 369/1/5 365/1/5 368/1/5
f 370/1/5 367/1/5 366/1/5
f 371/1/5 367/1/5 370/1/5
f 372/5/6 373/5/6 375/5/6
f 375/5/6 373/5/6 376/5/6
f 376/5/6 373/5/6 377/5/6
f 377/5/6 373/5/6 378/5/6
f 374/7/6 375/7/6 380/7/6
f 380/7/6 375/7/6 381/7/6
f 378/7/6 379/7/6 382/7/6
f 382/7/6 379/7/6 383/7/6
f 381/5/6 382/5/6 384/5/6
f 384/5/6 382/5/6 385/5/6
f 386/4/6 387/4/6 388/4/6
f 388/4/6 387/4/6 389/4/6
f 390/2/6 391/2/6 393/2/6
f 391/1/6 392/1/6 394/1/6
f 393/2/6 391/2/6 394/2/6
f 394/1/6 392/1/6 395/1/6
f 396/1/6 397/1/6 399/1/6
f 399/1/6 397/1/6 400/1/6
f 400/1/6 397/1/6 401/1/6
f 397/3/6 398/3/6 402/3/6
f 401/1/6 397/1/6 402/1/6
f 402/3/6 398/3/6 403/3/6
f 402/1/6 403/1/6 404/1/6
f 396/1/6 399/1/6 405/1/6
f 405/1/6 399/1/6 406/1/6
f 404/1/6 403/1/6 407/1/6
f 405/2/6 406/2/6 408/2/6
f 408/2/6 406/2/6 409/2/6
f 407/1/6 403/1/6 410/1/6
f 410/1/6 403/1/6 411/1/6
f 408/1/6 409/1/6 412/1/6
f 409/1/6 410/1/6 412/1/6
f 410/3/6 411/3/6 413/3/6
f 412/1/6 410/1/6 413/1/6
f 413/3/6 411/3/6 414/3/6
f 415/1/6 416/1/6 419/1/6
f 416/2/6 417/2/6 419/2/6
f 417/1/6 418/1/6 420/1/6
f 419/2/6 417/2/6 420/2/6
f 420/1/6 418/1/6 421/1/6
f 421/1/6 418/1/6 422/1/6
f 419/1/6 420/1/6 423/1/6
f 420/1/6 421/1/6 423/1/6
f 421/3/6 422/3/6 423/3/6
f 423/3/6 422/3/6 424/3/6
f 415/1/6 419/1/6 425/1/6
f 419/1/6 423/1/6 425/1/6
f 423/1/6 424/1/6 425/1/6
f 425/1/6 424/1/6 426/1/6
