# MagicaVoxel @ Ephtracy

# group
o 

# material
mtllib alex.vox.mtl
usemtl palette

# normals
vn -1 0 0
vn 1 0 0
vn 0 0 1
vn 0 0 -1
vn 0 -1 0
vn 0 1 0

# texcoords
vt 0.224609 0.5
vt 0.228516 0.5
vt 0.232422 0.5
vt 0.310547 0.5
vt 0.943359 0.5
vt 0.990234 0.5
vt 0.994141 0.5

# verts
v -0.8 0 0.8
v -0.8 0 -0.8
v -0.8 0.5 0.8
v -0.8 0.5 -0.8
v -0.8 1 0.8
v -0.8 1 -0.8
v -0.8 1.1 0.4
v -0.8 1.1 -0.8
v -0.8 1.2 0.5
v -0.8 1.2 0.4
v -0.8 1.3 0.6
v -0.8 1.3 0.5
v -0.8 1.4 0.8
v -0.8 1.4 0.6
v -0.8 1.6 0.8
v -0.8 1.6 -0.8
v 0.8 0 0.8
v 0.8 0 -0.8
v 0.8 0.5 0.8
v 0.8 0.5 -0.8
v 0.8 1 0.8
v 0.8 1 -0.8
v 0.8 1.1 0.4
v 0.8 1.1 -0.8
v 0.8 1.2 0.5
v 0.8 1.2 0.4
v 0.8 1.3 0.6
v 0.8 1.3 0.5
v 0.8 1.4 0.8
v 0.8 1.4 0.6
v 0.8 1.6 0.8
v 0.8 1.6 -0.8
v -0.8 0 0.8
v -0.8 0.5 0.8
v -0.8 1 0.8
v -0.8 1.4 0.8
v -0.8 1.6 0.8
v 0.8 0 0.8
v 0.8 0.5 0.8
v 0.8 1 0.8
v 0.8 1.4 0.8
v 0.8 1.6 0.8
v -0.8 0 -0.8
v -0.8 0.5 -0.8
v -0.8 1 -0.8
v -0.8 1.1 -0.8
v -0.8 1.6 -0.8
v 0.8 0 -0.8
v 0.8 0.5 -0.8
v 0.8 1 -0.8
v 0.8 1.1 -0.8
v 0.8 1.6 -0.8
v -0.8 0 0.8
v 0.8 0 0.8
v -0.8 0 -0.8
v 0.8 0 -0.8
v -0.8 1.6 0.8
v 0.8 1.6 0.8
v -0.8 1.6 -0.8
v 0.8 1.6 -0.8

# faces
f 3/1/1 2/1/1 1/1/1
f 4/1/1 2/1/1 3/1/1
f 5/4/1 4/4/1 3/4/1
f 6/4/1 4/4/1 5/4/1
f 7/2/1 6/2/1 5/2/1
f 8/2/1 6/2/1 7/2/1
f 9/2/1 7/2/1 5/2/1
f 10/7/1 8/7/1 7/7/1
f 10/2/1 7/2/1 9/2/1
f 11/2/1 9/2/1 5/2/1
f 12/7/1 10/7/1 9/7/1
f 12/2/1 9/2/1 11/2/1
f 13/2/1 11/2/1 5/2/1
f 14/7/1 12/7/1 11/7/1
f 14/2/1 11/2/1 13/2/1
f 15/7/1 14/7/1 13/7/1
f 16/7/1 8/7/1 10/7/1
f 16/7/1 14/7/1 15/7/1
f 16/7/1 10/7/1 12/7/1
f 16/7/1 12/7/1 14/7/1
f 17/1/2 18/1/2 19/1/2
f 19/1/2 18/1/2 20/1/2
f 19/4/2 20/4/2 21/4/2
f 21/4/2 20/4/2 22/4/2
f 21/2/2 22/2/2 23/2/2
f 23/2/2 22/2/2 24/2/2
f 21/2/2 23/2/2 25/2/2
f 23/7/2 24/7/2 26/7/2
f 25/2/2 23/2/2 26/2/2
f 21/2/2 25/2/2 27/2/2
f 25/7/2 26/7/2 28/7/2
f 27/2/2 25/2/2 28/2/2
f 21/2/2 27/2/2 29/2/2
f 27/7/2 28/7/2 30/7/2
f 29/2/2 27/2/2 30/2/2
f 29/7/2 30/7/2 31/7/2
f 26/7/2 24/7/2 32/7/2
f 31/7/2 30/7/2 32/7/2
f 28/7/2 26/7/2 32/7/2
f 30/7/2 28/7/2 32/7/2
f 38/1/3 34/1/3 33/1/3
f 39/4/3 35/4/3 34/4/3
f 39/1/3 34/1/3 38/1/3
f 40/2/3 36/2/3 35/2/3
f 40/4/3 35/4/3 39/4/3
f 41/7/3 37/7/3 36/7/3
f 41/2/3 36/2/3 40/2/3
f 42/7/3 37/7/3 41/7/3
f 43/1/4 44/1/4 48/1/4
f 44/4/4 45/4/4 49/4/4
f 48/1/4 44/1/4 49/1/4
f 45/2/4 46/2/4 50/2/4
f 49/4/4 45/4/4 50/4/4
f 46/7/4 47/7/4 51/7/4
f 50/2/4 46/2/4 51/2/4
f 51/7/4 47/7/4 52/7/4
f 55/1/5 54/1/5 53/1/5
f 56/1/5 54/1/5 55/1/5
f 57/7/6 58/7/6 59/7/6
f 59/7/6 58/7/6 60/7/6
