# MagicaVoxel @ Ephtracy

# group
o 

# material
mtllib charlie.vox.mtl
usemtl palette

# normals
vn -1 0 0
vn 1 0 0
vn 0 0 1
vn 0 0 -1
vn 0 -1 0
vn 0 1 0

# texcoords
vt 0.173828 0.5
vt 0.224609 0.5
vt 0.228516 0.5
vt 0.232422 0.5
vt 0.798828 0.5
vt 0.990234 0.5
vt 0.994141 0.5

# verts
v -0.8 0 0.8
v -0.8 0 -0.8
v -0.8 0.5 0.8
v -0.8 0.5 -0.8
v -0.8 1 0.8
v -0.8 1 -0.8
v -0.8 1.1 0.4
v -0.8 1.1 -0.8
v -0.8 1.2 0.5
v -0.8 1.2 0.4
v -0.8 1.3 0.6
v -0.8 1.3 0.5
v -0.8 1.4 0.8
v -0.8 1.4 0.6
v -0.8 1.6 0.8
v -0.8 1.6 -0.8
v 0.8 0 0.8
v 0.8 0 -0.8
v 0.8 0.5 0.8
v 0.8 0.5 -0.8
v 0.8 1 0.8
v 0.8 1 -0.8
v 0.8 1.1 0.4
v 0.8 1.1 -0.8
v 0.8 1.2 0.5
v 0.8 1.2 0.4
v 0.8 1.3 0.6
v 0.8 1.3 0.5
v 0.8 1.4 0.8
v 0.8 1.4 0.6
v 0.8 1.6 0.8
v 0.8 1.6 -0.8
v -0.8 0 0.8
v -0.8 0.5 0.8
v -0.8 1 0.8
v -0.8 1.4 0.8
v -0.8 1.6 0.8
v 0.8 0 0.8
v 0.8 0.5 0.8
v 0.8 1 0.8
v 0.8 1.4 0.8
v 0.8 1.6 0.8
v -0.8 0 -0.8
v -0.8 0.5 -0.8
v -0.8 1 -0.8
v -0.8 1.1 -0.8
v -0.8 1.6 -0.8
v 0.8 0 -0.8
v 0.8 0.5 -0.8
v 0.8 1 -0.8
v 0.8 1.1 -0.8
v 0.8 1.6 -0.8
v -0.8 0 0.8
v 0.8 0 0.8
v -0.8 0 -0.8
v 0.8 0 -0.8
v -0.8 1.6 0.8
v 0.8 1.6 0.8
v -0.8 1.6 -0.8
v 0.8 1.6 -0.8

# faces
f 3/5/1 2/5/1 1/5/1
f 4/5/1 2/5/1 3/5/1
f 5/1/1 4/1/1 3/1/1
f 6/1/1 4/1/1 5/1/1
f 7/3/1 6/3/1 5/3/1
f 8/3/1 6/3/1 7/3/1
f 9/3/1 7/3/1 5/3/1
f 10/2/1 8/2/1 7/2/1
f 10/3/1 7/3/1 9/3/1
f 11/3/1 9/3/1 5/3/1
f 12/2/1 10/2/1 9/2/1
f 12/3/1 9/3/1 11/3/1
f 13/3/1 11/3/1 5/3/1
f 14/2/1 12/2/1 11/2/1
f 14/3/1 11/3/1 13/3/1
f 15/2/1 14/2/1 13/2/1
f 16/2/1 8/2/1 10/2/1
f 16/2/1 14/2/1 15/2/1
f 16/2/1 10/2/1 12/2/1
f 16/2/1 12/2/1 14/2/1
f 17/5/2 18/5/2 19/5/2
f 19/5/2 18/5/2 20/5/2
f 19/1/2 20/1/2 21/1/2
f 21/1/2 20/1/2 22/1/2
f 21/3/2 22/3/2 23/3/2
f 23/3/2 22/3/2 24/3/2
f 21/3/2 23/3/2 25/3/2
f 23/2/2 24/2/2 26/2/2
f 25/3/2 23/3/2 26/3/2
f 21/3/2 25/3/2 27/3/2
f 25/2/2 26/2/2 28/2/2
f 27/3/2 25/3/2 28/3/2
f 21/3/2 27/3/2 29/3/2
f 27/2/2 28/2/2 30/2/2
f 29/3/2 27/3/2 30/3/2
f 29/2/2 30/2/2 31/2/2
f 26/2/2 24/2/2 32/2/2
f 31/2/2 30/2/2 32/2/2
f 28/2/2 26/2/2 32/2/2
f 30/2/2 28/2/2 32/2/2
f 38/5/3 34/5/3 33/5/3
f 39/1/3 35/1/3 34/1/3
f 39/5/3 34/5/3 38/5/3
f 40/3/3 36/3/3 35/3/3
f 40/1/3 35/1/3 39/1/3
f 41/2/3 37/2/3 36/2/3
f 41/3/3 36/3/3 40/3/3
f 42/2/3 37/2/3 41/2/3
f 43/5/4 44/5/4 48/5/4
f 44/1/4 45/1/4 49/1/4
f 48/5/4 44/5/4 49/5/4
f 45/3/4 46/3/4 50/3/4
f 49/1/4 45/1/4 50/1/4
f 46/2/4 47/2/4 51/2/4
f 50/3/4 46/3/4 51/3/4
f 51/2/4 47/2/4 52/2/4
f 55/5/5 54/5/5 53/5/5
f 56/5/5 54/5/5 55/5/5
f 57/2/6 58/2/6 59/2/6
f 59/2/6 58/2/6 60/2/6
