# MagicaVoxel @ Ephtracy

# group
o 

# material
mtllib tyler.vox.mtl
usemtl palette

# normals
vn -1 0 0
vn 1 0 0
vn 0 0 1
vn 0 0 -1
vn 0 -1 0
vn 0 1 0

# texcoords
vt 0.115234 0.5
vt 0.228516 0.5
vt 0.232422 0.5
vt 0.380859 0.5
vt 0.798828 0.5
vt 0.990234 0.5
vt 0.994141 0.5

# verts
v -0.8 0 0.8
v -0.8 0 -0.8
v -0.8 0.5 0.8
v -0.8 0.5 -0.8
v -0.8 1 0.8
v -0.8 1 -0.8
v -0.8 1.1 0.4
v -0.8 1.1 -0.8
v -0.8 1.2 0.5
v -0.8 1.2 0.4
v -0.8 1.3 0.6
v -0.8 1.3 0.5
v -0.8 1.4 0.8
v -0.8 1.4 0.6
v -0.8 1.6 0.8
v -0.8 1.6 -0.8
v 0.8 0 0.8
v 0.8 0 -0.8
v 0.8 0.5 0.8
v 0.8 0.5 -0.8
v 0.8 1 0.8
v 0.8 1 -0.8
v 0.8 1.1 0.4
v 0.8 1.1 -0.8
v 0.8 1.2 0.5
v 0.8 1.2 0.4
v 0.8 1.3 0.6
v 0.8 1.3 0.5
v 0.8 1.4 0.8
v 0.8 1.4 0.6
v 0.8 1.6 0.8
v 0.8 1.6 -0.8
v -0.8 0 0.8
v -0.8 0.5 0.8
v -0.8 1 0.8
v -0.8 1.4 0.8
v -0.8 1.6 0.8
v 0.8 0 0.8
v 0.8 0.5 0.8
v 0.8 1 0.8
v 0.8 1.4 0.8
v 0.8 1.6 0.8
v -0.8 0 -0.8
v -0.8 0.5 -0.8
v -0.8 1 -0.8
v -0.8 1.1 -0.8
v -0.8 1.6 -0.8
v 0.8 0 -0.8
v 0.8 0.5 -0.8
v 0.8 1 -0.8
v 0.8 1.1 -0.8
v 0.8 1.6 -0.8
v -0.8 0 0.8
v 0.8 0 0.8
v -0.8 0 -0.8
v 0.8 0 -0.8
v -0.8 1.6 0.8
v 0.8 1.6 0.8
v -0.8 1.6 -0.8
v 0.8 1.6 -0.8

# faces
f 3/5/1 2/5/1 1/5/1
f 4/5/1 2/5/1 3/5/1
f 5/1/1 4/1/1 3/1/1
f 6/1/1 4/1/1 5/1/1
f 7/2/1 6/2/1 5/2/1
f 8/2/1 6/2/1 7/2/1
f 9/2/1 7/2/1 5/2/1
f 10/4/1 8/4/1 7/4/1
f 10/2/1 7/2/1 9/2/1
f 11/2/1 9/2/1 5/2/1
f 12/4/1 10/4/1 9/4/1
f 12/2/1 9/2/1 11/2/1
f 13/2/1 11/2/1 5/2/1
f 14/4/1 12/4/1 11/4/1
f 14/2/1 11/2/1 13/2/1
f 15/4/1 14/4/1 13/4/1
f 16/4/1 8/4/1 10/4/1
f 16/4/1 14/4/1 15/4/1
f 16/4/1 10/4/1 12/4/1
f 16/4/1 12/4/1 14/4/1
f 17/5/2 18/5/2 19/5/2
f 19/5/2 18/5/2 20/5/2
f 19/1/2 20/1/2 21/1/2
f 21/1/2 20/1/2 22/1/2
f 21/2/2 22/2/2 23/2/2
f 23/2/2 22/2/2 24/2/2
f 21/2/2 23/2/2 25/2/2
f 23/4/2 24/4/2 26/4/2
f 25/2/2 23/2/2 26/2/2
f 21/2/2 25/2/2 27/2/2
f 25/4/2 26/4/2 28/4/2
f 27/2/2 25/2/2 28/2/2
f 21/2/2 27/2/2 29/2/2
f 27/4/2 28/4/2 30/4/2
f 29/2/2 27/2/2 30/2/2
f 29/4/2 30/4/2 31/4/2
f 26/4/2 24/4/2 32/4/2
f 31/4/2 30/4/2 32/4/2
f 28/4/2 26/4/2 32/4/2
f 30/4/2 28/4/2 32/4/2
f 38/5/3 34/5/3 33/5/3
f 39/1/3 35/1/3 34/1/3
f 39/5/3 34/5/3 38/5/3
f 40/2/3 36/2/3 35/2/3
f 40/1/3 35/1/3 39/1/3
f 41/4/3 37/4/3 36/4/3
f 41/2/3 36/2/3 40/2/3
f 42/4/3 37/4/3 41/4/3
f 43/5/4 44/5/4 48/5/4
f 44/1/4 45/1/4 49/1/4
f 48/5/4 44/5/4 49/5/4
f 45/2/4 46/2/4 50/2/4
f 49/1/4 45/1/4 50/1/4
f 46/4/4 47/4/4 51/4/4
f 50/2/4 46/2/4 51/2/4
f 51/4/4 47/4/4 52/4/4
f 55/5/5 54/5/5 53/5/5
f 56/5/5 54/5/5 55/5/5
f 57/4/6 58/4/6 59/4/6
f 59/4/6 58/4/6 60/4/6
