# MagicaVoxel @ Ephtracy

# group
o 

# material
mtllib Button.mtl
usemtl palette

# normals
vn -1 0 0
vn 1 0 0
vn 0 0 1
vn 0 0 -1
vn 0 -1 0
vn 0 1 0

# texcoords
vt 0.853516 0.5
vt 0.857422 0.5
vt 0.974609 0.5
vt 0.978516 0.5
vt 0.982422 0.5

# verts
v -0.8 0 0.8
v -0.8 0 -0.8
v -0.8 0.2 0.8
v -0.8 0.2 -0.8
v -0.8 0.3 0.8
v -0.8 0.3 -0.8
v -0.6 0.3 0.6
v -0.6 0.3 -0.6
v -0.6 0.4 0.6
v -0.6 0.4 -0.6
v -0.6 0.5 0.6
v -0.6 0.5 -0.6
v 0.6 0.3 0.6
v 0.6 0.3 -0.6
v 0.6 0.4 0.6
v 0.6 0.4 -0.6
v 0.6 0.5 0.6
v 0.6 0.5 -0.6
v 0.8 0 0.8
v 0.8 0 0.5
v 0.8 0 0.4
v 0.8 0 0
v 0.8 0 -0.1
v 0.8 0 -0.4
v 0.8 0 -0.6
v 0.8 0 -0.7
v 0.8 0 -0.8
v 0.8 0.1 0.8
v 0.8 0.1 0.7
v 0.8 0.1 0.6
v 0.8 0.1 0.5
v 0.8 0.1 0.4
v 0.8 0.1 0.3
v 0.8 0.1 0.2
v 0.8 0.1 0
v 0.8 0.1 -0.1
v 0.8 0.1 -0.4
v 0.8 0.1 -0.6
v 0.8 0.2 0.8
v 0.8 0.2 0.7
v 0.8 0.2 0.6
v 0.8 0.2 0.5
v 0.8 0.2 0.3
v 0.8 0.2 0.2
v 0.8 0.2 -0.7
v 0.8 0.2 -0.8
v 0.8 0.3 0.8
v 0.8 0.3 -0.8
v -0.8 0 0.8
v -0.8 0.2 0.8
v -0.8 0.3 0.8
v -0.7 0.1 0.8
v -0.7 0.2 0.8
v -0.6 0 0.8
v -0.6 0.1 0.8
v -0.5 0.1 0.8
v -0.5 0.2 0.8
v -0.4 0 0.8
v -0.4 0.1 0.8
v -0.3 0 0.8
v -0.3 0.2 0.8
v -0.2 0 0.8
v -0.2 0.2 0.8
v -0.1 0.1 0.8
v -0.1 0.2 0.8
v 0 0.1 0.8
v 0 0.2 0.8
v 0.1 0 0.8
v 0.1 0.1 0.8
v 0.2 0 0.8
v 0.2 0.1 0.8
v 0.5 0 0.8
v 0.5 0.1 0.8
v 0.6 0 0.8
v 0.6 0.1 0.8
v 0.7 0.1 0.8
v 0.7 0.2 0.8
v 0.8 0 0.8
v 0.8 0.1 0.8
v 0.8 0.2 0.8
v 0.8 0.3 0.8
v -0.6 0.3 0.6
v -0.6 0.4 0.6
v -0.6 0.5 0.6
v 0.6 0.3 0.6
v 0.6 0.4 0.6
v 0.6 0.5 0.6
v -0.6 0.3 -0.6
v -0.6 0.4 -0.6
v -0.6 0.5 -0.6
v 0.6 0.3 -0.6
v 0.6 0.4 -0.6
v 0.6 0.5 -0.6
v -0.8 0 -0.8
v -0.8 0.2 -0.8
v -0.8 0.3 -0.8
v 0.6 0.1 -0.8
v 0.6 0.2 -0.8
v 0.7 0 -0.8
v 0.7 0.1 -0.8
v 0.8 0 -0.8
v 0.8 0.2 -0.8
v 0.8 0.3 -0.8
v -0.8 0 0.8
v -0.6 0 0.8
v -0.4 0 0.8
v -0.3 0 0.8
v -0.2 0 0.8
v 0.1 0 0.8
v 0.2 0 0.8
v 0.5 0 0.8
v 0.6 0 0.8
v 0.8 0 0.8
v -0.6 0 0.7
v -0.4 0 0.7
v -0.3 0 0.7
v -0.2 0 0.7
v 0.1 0 0.7
v 0.2 0 0.7
v 0.5 0 0.7
v 0.6 0 0.7
v 0.7 0 0.5
v 0.8 0 0.5
v 0.7 0 0.4
v 0.8 0 0.4
v 0.7 0 0
v 0.8 0 0
v 0.7 0 -0.1
v 0.8 0 -0.1
v 0.7 0 -0.4
v 0.8 0 -0.4
v 0.7 0 -0.6
v 0.8 0 -0.6
v 0.7 0 -0.7
v 0.8 0 -0.7
v -0.8 0 -0.8
v 0.7 0 -0.8
v 0.8 0 -0.8
v -0.8 0.3 0.8
v 0.8 0.3 0.8
v -0.6 0.3 0.6
v 0.6 0.3 0.6
v -0.6 0.3 -0.6
v 0.6 0.3 -0.6
v -0.8 0.3 -0.8
v 0.8 0.3 -0.8
v -0.6 0.5 0.6
v 0.6 0.5 0.6
v -0.6 0.5 -0.6
v 0.6 0.5 -0.6

# faces
f 3/4/1 2/4/1 1/4/1
f 4/4/1 2/4/1 3/4/1
f 5/5/1 4/5/1 3/5/1
f 6/5/1 4/5/1 5/5/1
f 9/1/1 8/1/1 7/1/1
f 10/1/1 8/1/1 9/1/1
f 11/2/1 10/2/1 9/2/1
f 12/2/1 10/2/1 11/2/1
f 13/1/2 14/1/2 15/1/2
f 15/1/2 14/1/2 16/1/2
f 15/2/2 16/2/2 17/2/2
f 17/2/2 16/2/2 18/2/2
f 19/4/2 20/4/2 28/4/2
f 28/4/2 20/4/2 29/4/2
f 29/4/2 20/4/2 30/4/2
f 20/3/2 21/3/2 31/3/2
f 30/4/2 20/4/2 31/4/2
f 21/4/2 22/4/2 32/4/2
f 31/3/2 21/3/2 32/3/2
f 32/4/2 22/4/2 33/4/2
f 33/4/2 22/4/2 34/4/2
f 22/3/2 23/3/2 35/3/2
f 34/4/2 22/4/2 35/4/2
f 23/4/2 24/4/2 36/4/2
f 35/3/2 23/3/2 36/3/2
f 24/3/2 25/3/2 37/3/2
f 36/4/2 24/4/2 37/4/2
f 25/4/2 26/4/2 38/4/2
f 37/3/2 25/3/2 38/3/2
f 28/3/2 29/3/2 39/3/2
f 29/4/2 30/4/2 40/4/2
f 39/3/2 29/3/2 40/3/2
f 30/3/2 31/3/2 41/3/2
f 40/4/2 30/4/2 41/4/2
f 31/4/2 32/4/2 42/4/2
f 41/3/2 31/3/2 42/3/2
f 32/4/2 33/4/2 42/4/2
f 33/3/2 34/3/2 43/3/2
f 42/4/2 33/4/2 43/4/2
f 34/4/2 35/4/2 44/4/2
f 43/3/2 34/3/2 44/3/2
f 35/4/2 36/4/2 44/4/2
f 37/4/2 38/4/2 44/4/2
f 36/4/2 37/4/2 44/4/2
f 26/3/2 27/3/2 45/3/2
f 44/4/2 38/4/2 45/4/2
f 38/4/2 26/4/2 45/4/2
f 45/3/2 27/3/2 46/3/2
f 43/5/2 44/5/2 47/5/2
f 39/5/2 40/5/2 47/5/2
f 45/5/2 46/5/2 47/5/2
f 44/5/2 45/5/2 47/5/2
f 41/5/2 42/5/2 47/5/2
f 40/5/2 41/5/2 47/5/2
f 42/5/2 43/5/2 47/5/2
f 47/5/2 46/5/2 48/5/2
f 52/4/3 50/4/3 49/4/3
f 53/5/3 51/5/3 50/5/3
f 53/4/3 50/4/3 52/4/3
f 54/4/3 52/4/3 49/4/3
f 55/3/3 53/3/3 52/3/3
f 55/4/3 52/4/3 54/4/3
f 56/3/3 55/3/3 54/3/3
f 56/3/3 53/3/3 55/3/3
f 57/5/3 51/5/3 53/5/3
f 57/3/3 53/3/3 56/3/3
f 58/3/3 56/3/3 54/3/3
f 59/4/3 57/4/3 56/4/3
f 59/3/3 56/3/3 58/3/3
f 60/4/3 59/4/3 58/4/3
f 61/5/3 51/5/3 57/5/3
f 61/4/3 59/4/3 60/4/3
f 61/4/3 57/4/3 59/4/3
f 62/3/3 61/3/3 60/3/3
f 63/5/3 51/5/3 61/5/3
f 63/3/3 61/3/3 62/3/3
f 64/4/3 63/4/3 62/4/3
f 65/5/3 51/5/3 63/5/3
f 65/4/3 63/4/3 64/4/3
f 66/4/3 64/4/3 62/4/3
f 66/3/3 65/3/3 64/3/3
f 67/5/3 51/5/3 65/5/3
f 67/3/3 65/3/3 66/3/3
f 68/4/3 66/4/3 62/4/3
f 68/4/3 67/4/3 66/4/3
f 69/4/3 67/4/3 68/4/3
f 70/3/3 69/3/3 68/3/3
f 71/4/3 67/4/3 69/4/3
f 71/3/3 69/3/3 70/3/3
f 72/4/3 71/4/3 70/4/3
f 73/4/3 67/4/3 71/4/3
f 73/4/3 71/4/3 72/4/3
f 74/3/3 73/3/3 72/3/3
f 75/4/3 67/4/3 73/4/3
f 75/3/3 73/3/3 74/3/3
f 76/4/3 75/4/3 74/4/3
f 76/4/3 67/4/3 75/4/3
f 77/5/3 51/5/3 67/5/3
f 77/4/3 67/4/3 76/4/3
f 78/4/3 76/4/3 74/4/3
f 79/3/3 77/3/3 76/3/3
f 79/4/3 76/4/3 78/4/3
f 80/5/3 51/5/3 77/5/3
f 80/3/3 77/3/3 79/3/3
f 81/5/3 51/5/3 80/5/3
f 85/1/3 83/1/3 82/1/3
f 86/2/3 84/2/3 83/2/3
f 86/1/3 83/1/3 85/1/3
f 87/2/3 84/2/3 86/2/3
f 88/1/4 89/1/4 91/1/4
f 89/2/4 90/2/4 92/2/4
f 91/1/4 89/1/4 92/1/4
f 92/2/4 90/2/4 93/2/4
f 94/4/4 95/4/4 97/4/4
f 95/5/4 96/5/4 98/5/4
f 97/4/4 95/4/4 98/4/4
f 94/4/4 97/4/4 99/4/4
f 97/3/4 98/3/4 100/3/4
f 99/4/4 97/4/4 100/4/4
f 99/3/4 100/3/4 101/3/4
f 98/5/4 96/5/4 102/5/4
f 101/3/4 100/3/4 102/3/4
f 100/3/4 98/3/4 102/3/4
f 102/5/4 96/5/4 103/5/4
f 114/4/5 105/4/5 104/4/5
f 114/3/5 106/3/5 105/3/5
f 115/4/5 107/4/5 106/4/5
f 115/3/5 106/3/5 114/3/5
f 116/3/5 108/3/5 107/3/5
f 116/4/5 107/4/5 115/4/5
f 117/4/5 109/4/5 108/4/5
f 117/3/5 108/3/5 116/3/5
f 118/3/5 110/3/5 109/3/5
f 118/4/5 109/4/5 117/4/5
f 119/4/5 111/4/5 110/4/5
f 119/3/5 110/3/5 118/3/5
f 120/3/5 112/3/5 111/3/5
f 120/4/5 111/4/5 119/4/5
f 121/4/5 113/4/5 112/4/5
f 121/3/5 112/3/5 120/3/5
f 122/4/5 120/4/5 119/4/5
f 122/4/5 113/4/5 121/4/5
f 122/4/5 121/4/5 120/4/5
f 122/4/5 118/4/5 117/4/5
f 122/4/5 117/4/5 116/4/5
f 122/4/5 116/4/5 115/4/5
f 122/4/5 115/4/5 114/4/5
f 122/4/5 119/4/5 118/4/5
f 123/4/5 113/4/5 122/4/5
f 124/4/5 122/4/5 114/4/5
f 124/3/5 123/3/5 122/3/5
f 125/3/5 123/3/5 124/3/5
f 126/4/5 124/4/5 114/4/5
f 126/4/5 125/4/5 124/4/5
f 127/4/5 125/4/5 126/4/5
f 128/4/5 126/4/5 114/4/5
f 128/3/5 127/3/5 126/3/5
f 129/3/5 127/3/5 128/3/5
f 130/4/5 128/4/5 114/4/5
f 130/4/5 129/4/5 128/4/5
f 131/4/5 129/4/5 130/4/5
f 132/4/5 130/4/5 114/4/5
f 132/3/5 131/3/5 130/3/5
f 133/3/5 131/3/5 132/3/5
f 134/4/5 132/4/5 114/4/5
f 134/4/5 133/4/5 132/4/5
f 135/4/5 133/4/5 134/4/5
f 136/4/5 114/4/5 104/4/5
f 136/4/5 134/4/5 114/4/5
f 137/3/5 135/3/5 134/3/5
f 137/4/5 134/4/5 136/4/5
f 138/3/5 135/3/5 137/3/5
f 139/5/6 140/5/6 141/5/6
f 141/5/6 140/5/6 142/5/6
f 139/5/6 141/5/6 143/5/6
f 142/5/6 140/5/6 144/5/6
f 139/5/6 143/5/6 145/5/6
f 143/5/6 144/5/6 145/5/6
f 144/5/6 140/5/6 146/5/6
f 145/5/6 144/5/6 146/5/6
f 147/2/6 148/2/6 149/2/6
f 149/2/6 148/2/6 150/2/6
