# MagicaVoxel @ Ephtracy

# group
o 

# material
mtllib watchtower light.vox.mtl
usemtl palette

# normals
vn -1 0 0
vn 1 0 0
vn 0 0 1
vn 0 0 -1
vn 0 -1 0
vn 0 1 0

# texcoords
vt 0.400391 0.5
vt 0.404297 0.5
vt 0.427734 0.5
vt 0.431641 0.5
vt 0.435547 0.5

# verts
v -0.8 0 0.8
v -0.8 0 0.7
v -0.8 0 0.5
v -0.8 0 0.4
v -0.8 0 0.3
v -0.8 0 0.2
v -0.8 0 0.1
v -0.8 0 -0.1
v -0.8 0 -0.2
v -0.8 0 -0.3
v -0.8 0 -0.4
v -0.8 0 -0.5
v -0.8 0 -0.7
v -0.8 0 -0.8
v -0.8 1.6 0.8
v -0.8 1.6 0.7
v -0.8 1.6 0.5
v -0.8 1.6 0.4
v -0.8 1.6 0.3
v -0.8 1.6 0.2
v -0.8 1.6 0.1
v -0.8 1.6 -0.1
v -0.8 1.6 -0.2
v -0.8 1.6 -0.3
v -0.8 1.6 -0.4
v -0.8 1.6 -0.5
v -0.8 1.6 -0.7
v -0.8 1.6 -0.8
v -0.7 0 0.5
v -0.7 0 0.4
v -0.7 0 0.2
v -0.7 0 0.1
v -0.7 0 -0.1
v -0.7 0 -0.2
v -0.7 0 -0.4
v -0.7 0 -0.5
v -0.7 1.6 0.5
v -0.7 1.6 0.4
v -0.7 1.6 0.2
v -0.7 1.6 0.1
v -0.7 1.6 -0.1
v -0.7 1.6 -0.2
v -0.7 1.6 -0.4
v -0.7 1.6 -0.5
v -0.4 0 0.8
v -0.4 0 0.7
v -0.4 0 -0.7
v -0.4 0 -0.8
v -0.4 1.6 0.8
v -0.4 1.6 0.7
v -0.4 1.6 -0.7
v -0.4 1.6 -0.8
v -0.1 0 0.8
v -0.1 0 0.7
v -0.1 0 -0.7
v -0.1 0 -0.8
v -0.1 1.6 0.8
v -0.1 1.6 0.7
v -0.1 1.6 -0.7
v -0.1 1.6 -0.8
v 0.2 0 0.8
v 0.2 0 0.7
v 0.2 0 -0.7
v 0.2 0 -0.8
v 0.2 1.6 0.8
v 0.2 1.6 0.7
v 0.2 1.6 -0.7
v 0.2 1.6 -0.8
v 0.5 0 0.8
v 0.5 0 0.7
v 0.5 0 -0.7
v 0.5 0 -0.8
v 0.5 1.6 0.8
v 0.5 1.6 0.7
v 0.5 1.6 -0.7
v 0.5 1.6 -0.8
v -0.5 0 0.8
v -0.5 0 0.7
v -0.5 0 -0.7
v -0.5 0 -0.8
v -0.5 1.6 0.8
v -0.5 1.6 0.7
v -0.5 1.6 -0.7
v -0.5 1.6 -0.8
v -0.2 0 0.8
v -0.2 0 0.7
v -0.2 0 -0.7
v -0.2 0 -0.8
v -0.2 1.6 0.8
v -0.2 1.6 0.7
v -0.2 1.6 -0.7
v -0.2 1.6 -0.8
v 0.1 0 0.8
v 0.1 0 0.7
v 0.1 0 -0.7
v 0.1 0 -0.8
v 0.1 1.6 0.8
v 0.1 1.6 0.7
v 0.1 1.6 -0.7
v 0.1 1.6 -0.8
v 0.4 0 0.8
v 0.4 0 0.7
v 0.4 0 -0.7
v 0.4 0 -0.8
v 0.4 1.6 0.8
v 0.4 1.6 0.7
v 0.4 1.6 -0.7
v 0.4 1.6 -0.8
v 0.7 0 0.5
v 0.7 0 0.4
v 0.7 0 0.2
v 0.7 0 0.1
v 0.7 0 -0.1
v 0.7 0 -0.2
v 0.7 0 -0.4
v 0.7 0 -0.5
v 0.7 1.6 0.5
v 0.7 1.6 0.4
v 0.7 1.6 0.2
v 0.7 1.6 0.1
v 0.7 1.6 -0.1
v 0.7 1.6 -0.2
v 0.7 1.6 -0.4
v 0.7 1.6 -0.5
v 0.8 0 0.8
v 0.8 0 0.7
v 0.8 0 0.5
v 0.8 0 0.4
v 0.8 0 0.3
v 0.8 0 0.2
v 0.8 0 0.1
v 0.8 0 -0.1
v 0.8 0 -0.2
v 0.8 0 -0.3
v 0.8 0 -0.4
v 0.8 0 -0.5
v 0.8 0 -0.7
v 0.8 0 -0.8
v 0.8 1.6 0.8
v 0.8 1.6 0.7
v 0.8 1.6 0.5
v 0.8 1.6 0.4
v 0.8 1.6 0.3
v 0.8 1.6 0.2
v 0.8 1.6 0.1
v 0.8 1.6 -0.1
v 0.8 1.6 -0.2
v 0.8 1.6 -0.3
v 0.8 1.6 -0.4
v 0.8 1.6 -0.5
v 0.8 1.6 -0.7
v 0.8 1.6 -0.8
v -0.8 0 0.8
v -0.8 1.6 0.8
v -0.7 0 0.8
v -0.7 1.6 0.8
v -0.5 0 0.8
v -0.5 1.6 0.8
v -0.4 0 0.8
v -0.4 1.6 0.8
v -0.3 0 0.8
v -0.3 1.6 0.8
v -0.2 0 0.8
v -0.2 1.6 0.8
v -0.1 0 0.8
v -0.1 1.6 0.8
v 0.1 0 0.8
v 0.1 1.6 0.8
v 0.2 0 0.8
v 0.2 1.6 0.8
v 0.3 0 0.8
v 0.3 1.6 0.8
v 0.4 0 0.8
v 0.4 1.6 0.8
v 0.5 0 0.8
v 0.5 1.6 0.8
v 0.7 0 0.8
v 0.7 1.6 0.8
v 0.8 0 0.8
v 0.8 1.6 0.8
v -0.5 0 0.7
v -0.5 1.6 0.7
v -0.4 0 0.7
v -0.4 1.6 0.7
v -0.2 0 0.7
v -0.2 1.6 0.7
v -0.1 0 0.7
v -0.1 1.6 0.7
v 0.1 0 0.7
v 0.1 1.6 0.7
v 0.2 0 0.7
v 0.2 1.6 0.7
v 0.4 0 0.7
v 0.4 1.6 0.7
v 0.5 0 0.7
v 0.5 1.6 0.7
v -0.8 0 0.4
v -0.8 1.6 0.4
v -0.7 0 0.4
v -0.7 1.6 0.4
v 0.7 0 0.4
v 0.7 1.6 0.4
v 0.8 0 0.4
v 0.8 1.6 0.4
v -0.8 0 0.1
v -0.8 1.6 0.1
v -0.7 0 0.1
v -0.7 1.6 0.1
v 0.7 0 0.1
v 0.7 1.6 0.1
v 0.8 0 0.1
v 0.8 1.6 0.1
v -0.8 0 -0.2
v -0.8 1.6 -0.2
v -0.7 0 -0.2
v -0.7 1.6 -0.2
v 0.7 0 -0.2
v 0.7 1.6 -0.2
v 0.8 0 -0.2
v 0.8 1.6 -0.2
v -0.8 0 -0.5
v -0.8 1.6 -0.5
v -0.7 0 -0.5
v -0.7 1.6 -0.5
v 0.7 0 -0.5
v 0.7 1.6 -0.5
v 0.8 0 -0.5
v 0.8 1.6 -0.5
v -0.8 0 0.5
v -0.8 1.6 0.5
v -0.7 0 0.5
v -0.7 1.6 0.5
v 0.7 0 0.5
v 0.7 1.6 0.5
v 0.8 0 0.5
v 0.8 1.6 0.5
v -0.8 0 0.2
v -0.8 1.6 0.2
v -0.7 0 0.2
v -0.7 1.6 0.2
v 0.7 0 0.2
v 0.7 1.6 0.2
v 0.8 0 0.2
v 0.8 1.6 0.2
v -0.8 0 -0.1
v -0.8 1.6 -0.1
v -0.7 0 -0.1
v -0.7 1.6 -0.1
v 0.7 0 -0.1
v 0.7 1.6 -0.1
v 0.8 0 -0.1
v 0.8 1.6 -0.1
v -0.8 0 -0.4
v -0.8 1.6 -0.4
v -0.7 0 -0.4
v -0.7 1.6 -0.4
v 0.7 0 -0.4
v 0.7 1.6 -0.4
v 0.8 0 -0.4
v 0.8 1.6 -0.4
v -0.5 0 -0.7
v -0.5 1.6 -0.7
v -0.4 0 -0.7
v -0.4 1.6 -0.7
v -0.2 0 -0.7
v -0.2 1.6 -0.7
v -0.1 0 -0.7
v -0.1 1.6 -0.7
v 0.1 0 -0.7
v 0.1 1.6 -0.7
v 0.2 0 -0.7
v 0.2 1.6 -0.7
v 0.4 0 -0.7
v 0.4 1.6 -0.7
v 0.5 0 -0.7
v 0.5 1.6 -0.7
v -0.8 0 -0.8
v -0.8 1.6 -0.8
v -0.7 0 -0.8
v -0.7 1.6 -0.8
v -0.5 0 -0.8
v -0.5 1.6 -0.8
v -0.4 0 -0.8
v -0.4 1.6 -0.8
v -0.3 0 -0.8
v -0.3 1.6 -0.8
v -0.2 0 -0.8
v -0.2 1.6 -0.8
v -0.1 0 -0.8
v -0.1 1.6 -0.8
v 0.1 0 -0.8
v 0.1 1.6 -0.8
v 0.2 0 -0.8
v 0.2 1.6 -0.8
v 0.3 0 -0.8
v 0.3 1.6 -0.8
v 0.4 0 -0.8
v 0.4 1.6 -0.8
v 0.5 0 -0.8
v 0.5 1.6 -0.8
v 0.7 0 -0.8
v 0.7 1.6 -0.8
v 0.8 0 -0.8
v 0.8 1.6 -0.8
v -0.8 0 0.8
v -0.7 0 0.8
v -0.5 0 0.8
v -0.4 0 0.8
v -0.3 0 0.8
v -0.2 0 0.8
v -0.1 0 0.8
v 0.1 0 0.8
v 0.2 0 0.8
v 0.3 0 0.8
v 0.4 0 0.8
v 0.5 0 0.8
v 0.7 0 0.8
v 0.8 0 0.8
v -0.8 0 0.7
v -0.7 0 0.7
v -0.5 0 0.7
v -0.4 0 0.7
v -0.2 0 0.7
v -0.1 0 0.7
v 0.1 0 0.7
v 0.2 0 0.7
v 0.4 0 0.7
v 0.5 0 0.7
v 0.7 0 0.7
v 0.8 0 0.7
v -0.5 0 0.6
v -0.3 0 0.6
v -0.2 0 0.6
v 0.2 0 0.6
v 0.3 0 0.6
v 0.5 0 0.6
v -0.8 0 0.5
v -0.7 0 0.5
v -0.6 0 0.5
v 0.6 0 0.5
v 0.7 0 0.5
v 0.8 0 0.5
v -0.8 0 0.4
v -0.7 0 0.4
v 0.7 0 0.4
v 0.8 0 0.4
v -0.8 0 0.3
v -0.6 0 0.3
v 0.6 0 0.3
v 0.8 0 0.3
v -0.8 0 0.2
v -0.7 0 0.2
v -0.6 0 0.2
v 0.6 0 0.2
v 0.7 0 0.2
v 0.8 0 0.2
v -0.8 0 0.1
v -0.7 0 0.1
v 0.7 0 0.1
v 0.8 0 0.1
v -0.8 0 -0.1
v -0.7 0 -0.1
v 0.7 0 -0.1
v 0.8 0 -0.1
v -0.8 0 -0.2
v -0.7 0 -0.2
v -0.6 0 -0.2
v 0.6 0 -0.2
v 0.7 0 -0.2
v 0.8 0 -0.2
v -0.8 0 -0.3
v -0.6 0 -0.3
v 0.6 0 -0.3
v 0.8 0 -0.3
v -0.8 0 -0.4
v -0.7 0 -0.4
v 0.7 0 -0.4
v 0.8 0 -0.4
v -0.8 0 -0.5
v -0.7 0 -0.5
v -0.6 0 -0.5
v 0.6 0 -0.5
v 0.7 0 -0.5
v 0.8 0 -0.5
v -0.5 0 -0.6
v -0.3 0 -0.6
v -0.2 0 -0.6
v 0.2 0 -0.6
v 0.3 0 -0.6
v 0.5 0 -0.6
v -0.8 0 -0.7
v -0.7 0 -0.7
v -0.5 0 -0.7
v -0.4 0 -0.7
v -0.2 0 -0.7
v -0.1 0 -0.7
v 0.1 0 -0.7
v 0.2 0 -0.7
v 0.4 0 -0.7
v 0.5 0 -0.7
v 0.7 0 -0.7
v 0.8 0 -0.7
v -0.8 0 -0.8
v -0.7 0 -0.8
v -0.5 0 -0.8
v -0.4 0 -0.8
v -0.3 0 -0.8
v -0.2 0 -0.8
v -0.1 0 -0.8
v 0.1 0 -0.8
v 0.2 0 -0.8
v 0.3 0 -0.8
v 0.4 0 -0.8
v 0.5 0 -0.8
v 0.7 0 -0.8
v 0.8 0 -0.8
v -0.8 1.6 0.8
v -0.7 1.6 0.8
v -0.5 1.6 0.8
v -0.4 1.6 0.8
v -0.3 1.6 0.8
v -0.2 1.6 0.8
v -0.1 1.6 0.8
v 0.1 1.6 0.8
v 0.2 1.6 0.8
v 0.3 1.6 0.8
v 0.4 1.6 0.8
v 0.5 1.6 0.8
v 0.7 1.6 0.8
v 0.8 1.6 0.8
v -0.8 1.6 0.7
v -0.7 1.6 0.7
v -0.5 1.6 0.7
v -0.4 1.6 0.7
v -0.2 1.6 0.7
v -0.1 1.6 0.7
v 0.1 1.6 0.7
v 0.2 1.6 0.7
v 0.4 1.6 0.7
v 0.5 1.6 0.7
v 0.7 1.6 0.7
v 0.8 1.6 0.7
v -0.6 1.6 0.6
v -0.5 1.6 0.6
v -0.3 1.6 0.6
v -0.2 1.6 0.6
v 0.2 1.6 0.6
v 0.3 1.6 0.6
v 0.5 1.6 0.6
v 0.6 1.6 0.6
v -0.8 1.6 0.5
v -0.7 1.6 0.5
v -0.6 1.6 0.5
v 0.6 1.6 0.5
v 0.7 1.6 0.5
v 0.8 1.6 0.5
v -0.8 1.6 0.4
v -0.7 1.6 0.4
v 0.7 1.6 0.4
v 0.8 1.6 0.4
v -0.8 1.6 0.3
v -0.6 1.6 0.3
v 0.6 1.6 0.3
v 0.8 1.6 0.3
v -0.8 1.6 0.2
v -0.7 1.6 0.2
v -0.6 1.6 0.2
v 0.6 1.6 0.2
v 0.7 1.6 0.2
v 0.8 1.6 0.2
v -0.8 1.6 0.1
v -0.7 1.6 0.1
v 0.7 1.6 0.1
v 0.8 1.6 0.1
v -0.8 1.6 -0.1
v -0.7 1.6 -0.1
v 0.7 1.6 -0.1
v 0.8 1.6 -0.1
v -0.8 1.6 -0.2
v -0.7 1.6 -0.2
v -0.6 1.6 -0.2
v 0.6 1.6 -0.2
v 0.7 1.6 -0.2
v 0.8 1.6 -0.2
v -0.8 1.6 -0.3
v -0.6 1.6 -0.3
v 0.6 1.6 -0.3
v 0.8 1.6 -0.3
v -0.8 1.6 -0.4
v -0.7 1.6 -0.4
v 0.7 1.6 -0.4
v 0.8 1.6 -0.4
v -0.8 1.6 -0.5
v -0.7 1.6 -0.5
v -0.6 1.6 -0.5
v 0.6 1.6 -0.5
v 0.7 1.6 -0.5
v 0.8 1.6 -0.5
v -0.6 1.6 -0.6
v -0.5 1.6 -0.6
v -0.3 1.6 -0.6
v -0.2 1.6 -0.6
v 0.2 1.6 -0.6
v 0.3 1.6 -0.6
v 0.5 1.6 -0.6
v 0.6 1.6 -0.6
v -0.8 1.6 -0.7
v -0.7 1.6 -0.7
v -0.5 1.6 -0.7
v -0.4 1.6 -0.7
v -0.2 1.6 -0.7
v -0.1 1.6 -0.7
v 0.1 1.6 -0.7
v 0.2 1.6 -0.7
v 0.4 1.6 -0.7
v 0.5 1.6 -0.7
v 0.7 1.6 -0.7
v 0.8 1.6 -0.7
v -0.8 1.6 -0.8
v -0.7 1.6 -0.8
v -0.5 1.6 -0.8
v -0.4 1.6 -0.8
v -0.3 1.6 -0.8
v -0.2 1.6 -0.8
v -0.1 1.6 -0.8
v 0.1 1.6 -0.8
v 0.2 1.6 -0.8
v 0.3 1.6 -0.8
v 0.4 1.6 -0.8
v 0.5 1.6 -0.8
v 0.7 1.6 -0.8
v 0.8 1.6 -0.8

# faces
f 15/1/1 2/1/1 1/1/1
f 16/5/1 3/5/1 2/5/1
f 16/1/1 2/1/1 15/1/1
f 17/5/1 3/5/1 16/5/1
f 18/4/1 5/4/1 4/4/1
f 19/2/1 6/2/1 5/2/1
f 19/4/1 5/4/1 18/4/1
f 20/2/1 6/2/1 19/2/1
f 21/3/1 8/3/1 7/3/1
f 22/3/1 8/3/1 21/3/1
f 23/2/1 10/2/1 9/2/1
f 24/4/1 11/4/1 10/4/1
f 24/2/1 10/2/1 23/2/1
f 25/4/1 11/4/1 24/4/1
f 26/5/1 13/5/1 12/5/1
f 27/1/1 14/1/1 13/1/1
f 27/5/1 13/5/1 26/5/1
f 28/1/1 14/1/1 27/1/1
f 37/4/1 30/4/1 29/4/1
f 38/4/1 30/4/1 37/4/1
f 39/3/1 32/3/1 31/3/1
f 40/3/1 32/3/1 39/3/1
f 41/3/1 34/3/1 33/3/1
f 42/3/1 34/3/1 41/3/1
f 43/4/1 36/4/1 35/4/1
f 44/4/1 36/4/1 43/4/1
f 49/4/1 46/4/1 45/4/1
f 50/4/1 46/4/1 49/4/1
f 51/4/1 48/4/1 47/4/1
f 52/4/1 48/4/1 51/4/1
f 57/3/1 54/3/1 53/3/1
f 58/3/1 54/3/1 57/3/1
f 59/3/1 56/3/1 55/3/1
f 60/3/1 56/3/1 59/3/1
f 65/2/1 62/2/1 61/2/1
f 66/2/1 62/2/1 65/2/1
f 67/2/1 64/2/1 63/2/1
f 68/2/1 64/2/1 67/2/1
f 73/5/1 70/5/1 69/5/1
f 74/5/1 70/5/1 73/5/1
f 75/5/1 72/5/1 71/5/1
f 76/5/1 72/5/1 75/5/1
f 77/5/2 78/5/2 81/5/2
f 81/5/2 78/5/2 82/5/2
f 79/5/2 80/5/2 83/5/2
f 83/5/2 80/5/2 84/5/2
f 85/2/2 86/2/2 89/2/2
f 89/2/2 86/2/2 90/2/2
f 87/2/2 88/2/2 91/2/2
f 91/2/2 88/2/2 92/2/2
f 93/3/2 94/3/2 97/3/2
f 97/3/2 94/3/2 98/3/2
f 95/3/2 96/3/2 99/3/2
f 99/3/2 96/3/2 100/3/2
f 101/4/2 102/4/2 105/4/2
f 105/4/2 102/4/2 106/4/2
f 103/4/2 104/4/2 107/4/2
f 107/4/2 104/4/2 108/4/2
f 109/4/2 110/4/2 117/4/2
f 117/4/2 110/4/2 118/4/2
f 111/3/2 112/3/2 119/3/2
f 119/3/2 112/3/2 120/3/2
f 113/3/2 114/3/2 121/3/2
f 121/3/2 114/3/2 122/3/2
f 115/4/2 116/4/2 123/4/2
f 123/4/2 116/4/2 124/4/2
f 125/1/2 126/1/2 139/1/2
f 126/5/2 127/5/2 140/5/2
f 139/1/2 126/1/2 140/1/2
f 140/5/2 127/5/2 141/5/2
f 128/4/2 129/4/2 142/4/2
f 129/2/2 130/2/2 143/2/2
f 142/4/2 129/4/2 143/4/2
f 143/2/2 130/2/2 144/2/2
f 131/3/2 132/3/2 145/3/2
f 145/3/2 132/3/2 146/3/2
f 133/2/2 134/2/2 147/2/2
f 134/4/2 135/4/2 148/4/2
f 147/2/2 134/2/2 148/2/2
f 148/4/2 135/4/2 149/4/2
f 136/5/2 137/5/2 150/5/2
f 137/1/2 138/1/2 151/1/2
f 150/5/2 137/5/2 151/5/2
f 151/1/2 138/1/2 152/1/2
f 155/1/3 154/1/3 153/1/3
f 156/1/3 154/1/3 155/1/3
f 157/5/3 156/5/3 155/5/3
f 158/5/3 156/5/3 157/5/3
f 161/4/3 160/4/3 159/4/3
f 162/4/3 160/4/3 161/4/3
f 163/2/3 162/2/3 161/2/3
f 164/2/3 162/2/3 163/2/3
f 167/3/3 166/3/3 165/3/3
f 168/3/3 166/3/3 167/3/3
f 171/2/3 170/2/3 169/2/3
f 172/2/3 170/2/3 171/2/3
f 173/4/3 172/4/3 171/4/3
f 174/4/3 172/4/3 173/4/3
f 177/5/3 176/5/3 175/5/3
f 178/5/3 176/5/3 177/5/3
f 179/1/3 178/1/3 177/1/3
f 180/1/3 178/1/3 179/1/3
f 183/4/3 182/4/3 181/4/3
f 184/4/3 182/4/3 183/4/3
f 187/3/3 186/3/3 185/3/3
f 188/3/3 186/3/3 187/3/3
f 191/3/3 190/3/3 189/3/3
f 192/3/3 190/3/3 191/3/3
f 195/4/3 194/4/3 193/4/3
f 196/4/3 194/4/3 195/4/3
f 199/4/3 198/4/3 197/4/3
f 200/4/3 198/4/3 199/4/3
f 203/4/3 202/4/3 201/4/3
f 204/4/3 202/4/3 203/4/3
f 207/3/3 206/3/3 205/3/3
f 208/3/3 206/3/3 207/3/3
f 211/3/3 210/3/3 209/3/3
f 212/3/3 210/3/3 211/3/3
f 215/2/3 214/2/3 213/2/3
f 216/2/3 214/2/3 215/2/3
f 219/2/3 218/2/3 217/2/3
f 220/2/3 218/2/3 219/2/3
f 223/5/3 222/5/3 221/5/3
f 224/5/3 222/5/3 223/5/3
f 227/5/3 226/5/3 225/5/3
f 228/5/3 226/5/3 227/5/3
f 229/5/4 230/5/4 231/5/4
f 231/5/4 230/5/4 232/5/4
f 233/5/4 234/5/4 235/5/4
f 235/5/4 234/5/4 236/5/4
f 237/2/4 238/2/4 239/2/4
f 239/2/4 238/2/4 240/2/4
f 241/2/4 242/2/4 243/2/4
f 243/2/4 242/2/4 244/2/4
f 245/3/4 246/3/4 247/3/4
f 247/3/4 246/3/4 248/3/4
f 249/3/4 250/3/4 251/3/4
f 251/3/4 250/3/4 252/3/4
f 253/4/4 254/4/4 255/4/4
f 255/4/4 254/4/4 256/4/4
f 257/4/4 258/4/4 259/4/4
f 259/4/4 258/4/4 260/4/4
f 261/4/4 262/4/4 263/4/4
f 263/4/4 262/4/4 264/4/4
f 265/3/4 266/3/4 267/3/4
f 267/3/4 266/3/4 268/3/4
f 269/3/4 270/3/4 271/3/4
f 271/3/4 270/3/4 272/3/4
f 273/4/4 274/4/4 275/4/4
f 275/4/4 274/4/4 276/4/4
f 277/1/4 278/1/4 279/1/4
f 279/1/4 278/1/4 280/1/4
f 279/5/4 280/5/4 281/5/4
f 281/5/4 280/5/4 282/5/4
f 283/4/4 284/4/4 285/4/4
f 285/4/4 284/4/4 286/4/4
f 285/2/4 286/2/4 287/2/4
f 287/2/4 286/2/4 288/2/4
f 289/3/4 290/3/4 291/3/4
f 291/3/4 290/3/4 292/3/4
f 293/2/4 294/2/4 295/2/4
f 295/2/4 294/2/4 296/2/4
f 295/4/4 296/4/4 297/4/4
f 297/4/4 296/4/4 298/4/4
f 299/5/4 300/5/4 301/5/4
f 301/5/4 300/5/4 302/5/4
f 301/1/4 302/1/4 303/1/4
f 303/1/4 302/1/4 304/1/4
f 319/1/5 306/1/5 305/1/5
f 320/5/5 307/5/5 306/5/5
f 320/1/5 306/1/5 319/1/5
f 321/5/5 307/5/5 320/5/5
f 322/4/5 309/4/5 308/4/5
f 323/2/5 310/2/5 309/2/5
f 324/3/5 312/3/5 311/3/5
f 325/3/5 312/3/5 324/3/5
f 326/2/5 314/2/5 313/2/5
f 327/4/5 315/4/5 314/4/5
f 328/5/5 317/5/5 316/5/5
f 329/1/5 318/1/5 317/1/5
f 329/5/5 317/5/5 328/5/5
f 330/1/5 318/1/5 329/1/5
f 331/2/5 321/2/5 320/2/5
f 331/4/5 322/4/5 321/4/5
f 332/2/5 323/2/5 309/2/5
f 332/4/5 322/4/5 331/4/5
f 332/4/5 309/4/5 322/4/5
f 333/3/5 325/3/5 324/3/5
f 333/2/5 323/2/5 332/2/5
f 333/3/5 326/3/5 325/3/5
f 333/3/5 324/3/5 323/3/5
f 334/2/5 314/2/5 326/2/5
f 334/3/5 326/3/5 333/3/5
f 335/4/5 328/4/5 327/4/5
f 335/2/5 314/2/5 334/2/5
f 335/4/5 327/4/5 314/4/5
f 336/2/5 329/2/5 328/2/5
f 336/4/5 328/4/5 335/4/5
f 337/5/5 320/5/5 319/5/5
f 338/2/5 334/2/5 333/2/5
f 338/5/5 320/5/5 337/5/5
f 338/2/5 331/2/5 320/2/5
f 338/2/5 336/2/5 335/2/5
f 338/2/5 333/2/5 332/2/5
f 338/2/5 332/2/5 331/2/5
f 338/2/5 335/2/5 334/2/5
f 339/2/5 336/2/5 338/2/5
f 340/2/5 329/2/5 336/2/5
f 340/2/5 336/2/5 339/2/5
f 341/5/5 330/5/5 329/5/5
f 341/2/5 329/2/5 340/2/5
f 342/5/5 330/5/5 341/5/5
f 344/4/5 339/4/5 338/4/5
f 345/4/5 341/4/5 340/4/5
f 347/4/5 344/4/5 343/4/5
f 348/2/5 340/2/5 339/2/5
f 348/4/5 344/4/5 347/4/5
f 348/4/5 339/4/5 344/4/5
f 349/4/5 346/4/5 345/4/5
f 349/2/5 340/2/5 348/2/5
f 349/4/5 345/4/5 340/4/5
f 350/4/5 346/4/5 349/4/5
f 351/2/5 348/2/5 347/2/5
f 351/2/5 349/2/5 348/2/5
f 351/2/5 350/2/5 349/2/5
f 352/2/5 350/2/5 351/2/5
f 353/2/5 350/2/5 352/2/5
f 354/2/5 350/2/5 353/2/5
f 355/2/5 350/2/5 354/2/5
f 356/2/5 350/2/5 355/2/5
f 358/3/5 353/3/5 352/3/5
f 359/3/5 355/3/5 354/3/5
f 361/3/5 358/3/5 357/3/5
f 362/3/5 353/3/5 358/3/5
f 362/3/5 358/3/5 361/3/5
f 363/3/5 360/3/5 359/3/5
f 363/3/5 359/3/5 354/3/5
f 364/3/5 360/3/5 363/3/5
f 366/3/5 353/3/5 362/3/5
f 367/2/5 354/2/5 353/2/5
f 367/3/5 353/3/5 366/3/5
f 368/3/5 363/3/5 354/3/5
f 368/2/5 354/2/5 367/2/5
f 369/3/5 363/3/5 368/3/5
f 371/2/5 367/2/5 366/2/5
f 371/2/5 370/2/5 369/2/5
f 371/2/5 369/2/5 368/2/5
f 371/2/5 368/2/5 367/2/5
f 371/2/5 366/2/5 365/2/5
f 372/2/5 370/2/5 371/2/5
f 373/2/5 370/2/5 372/2/5
f 374/2/5 370/2/5 373/2/5
f 375/4/5 372/4/5 371/4/5
f 376/4/5 372/4/5 375/4/5
f 377/4/5 374/4/5 373/4/5
f 378/4/5 374/4/5 377/4/5
f 380/4/5 372/4/5 376/4/5
f 381/2/5 373/2/5 372/2/5
f 381/4/5 372/4/5 380/4/5
f 382/4/5 377/4/5 373/4/5
f 382/2/5 373/2/5 381/2/5
f 383/4/5 377/4/5 382/4/5
f 385/2/5 381/2/5 380/2/5
f 385/2/5 382/2/5 381/2/5
f 385/2/5 383/2/5 382/2/5
f 386/2/5 383/2/5 385/2/5
f 387/2/5 383/2/5 386/2/5
f 388/2/5 383/2/5 387/2/5
f 389/2/5 383/2/5 388/2/5
f 390/2/5 383/2/5 389/2/5
f 391/5/5 380/5/5 379/5/5
f 392/2/5 385/2/5 380/2/5
f 392/5/5 380/5/5 391/5/5
f 393/4/5 386/4/5 385/4/5
f 393/2/5 385/2/5 392/2/5
f 394/4/5 386/4/5 393/4/5
f 395/2/5 387/2/5 386/2/5
f 395/3/5 388/3/5 387/3/5
f 396/3/5 388/3/5 395/3/5
f 397/3/5 388/3/5 396/3/5
f 398/2/5 389/2/5 388/2/5
f 398/3/5 388/3/5 397/3/5
f 399/4/5 390/4/5 389/4/5
f 400/2/5 383/2/5 390/2/5
f 400/4/5 390/4/5 399/4/5
f 401/5/5 384/5/5 383/5/5
f 401/2/5 383/2/5 400/2/5
f 402/5/5 384/5/5 401/5/5
f 403/1/5 392/1/5 391/1/5
f 404/5/5 393/5/5 392/5/5
f 404/1/5 392/1/5 403/1/5
f 405/5/5 393/5/5 404/5/5
f 406/4/5 386/4/5 394/4/5
f 407/2/5 395/2/5 386/2/5
f 407/4/5 386/4/5 406/4/5
f 408/2/5 395/2/5 407/2/5
f 409/3/5 397/3/5 396/3/5
f 410/3/5 397/3/5 409/3/5
f 411/2/5 389/2/5 398/2/5
f 412/4/5 399/4/5 389/4/5
f 412/2/5 389/2/5 411/2/5
f 413/4/5 399/4/5 412/4/5
f 414/5/5 401/5/5 400/5/5
f 415/1/5 402/1/5 401/1/5
f 415/5/5 401/5/5 414/5/5
f 416/1/5 402/1/5 415/1/5
f 417/1/6 418/1/6 431/1/6
f 418/5/6 419/5/6 432/5/6
f 431/1/6 418/1/6 432/1/6
f 432/5/6 419/5/6 433/5/6
f 420/4/6 421/4/6 434/4/6
f 421/2/6 422/2/6 435/2/6
f 423/3/6 424/3/6 436/3/6
f 436/3/6 424/3/6 437/3/6
f 425/2/6 426/2/6 438/2/6
f 426/4/6 427/4/6 439/4/6
f 428/5/6 429/5/6 440/5/6
f 429/1/6 430/1/6 441/1/6
f 440/5/6 429/5/6 441/5/6
f 441/1/6 430/1/6 442/1/6
f 432/5/6 433/5/6 443/5/6
f 431/5/6 432/5/6 443/5/6
f 433/4/6 434/4/6 444/4/6
f 443/5/6 433/5/6 444/5/6
f 421/2/6 435/2/6 445/2/6
f 444/4/6 434/4/6 445/4/6
f 434/4/6 421/4/6 445/4/6
f 436/3/6 437/3/6 446/3/6
f 445/2/6 435/2/6 446/2/6
f 437/3/6 438/3/6 446/3/6
f 435/3/6 436/3/6 446/3/6
f 438/2/6 426/2/6 447/2/6
f 446/3/6 438/3/6 447/3/6
f 439/4/6 440/4/6 448/4/6
f 447/2/6 426/2/6 448/2/6
f 426/4/6 439/4/6 448/4/6
f 441/5/6 442/5/6 449/5/6
f 448/4/6 440/4/6 449/4/6
f 440/5/6 441/5/6 449/5/6
f 449/5/6 442/5/6 450/5/6
f 431/5/6 443/5/6 451/5/6
f 451/5/6 443/5/6 452/5/6
f 446/2/6 447/2/6 453/2/6
f 452/5/6 443/5/6 453/5/6
f 443/2/6 444/2/6 453/2/6
f 444/2/6 445/2/6 453/2/6
f 449/2/6 450/2/6 453/2/6
f 448/2/6 449/2/6 453/2/6
f 447/2/6 448/2/6 453/2/6
f 445/2/6 446/2/6 453/2/6
f 450/5/6 442/5/6 454/5/6
f 453/2/6 450/2/6 454/2/6
f 454/5/6 442/5/6 455/5/6
f 455/5/6 442/5/6 456/5/6
f 452/4/6 453/4/6 458/4/6
f 454/4/6 455/4/6 459/4/6
f 457/4/6 458/4/6 461/4/6
f 453/2/6 454/2/6 462/2/6
f 461/4/6 458/4/6 462/4/6
f 458/4/6 453/4/6 462/4/6
f 459/4/6 460/4/6 463/4/6
f 462/2/6 454/2/6 463/2/6
f 454/4/6 459/4/6 463/4/6
f 463/4/6 460/4/6 464/4/6
f 461/2/6 462/2/6 465/2/6
f 462/2/6 463/2/6 465/2/6
f 463/2/6 464/2/6 465/2/6
f 465/2/6 464/2/6 466/2/6
f 466/2/6 464/2/6 467/2/6
f 467/2/6 464/2/6 468/2/6
f 468/2/6 464/2/6 469/2/6
f 469/2/6 464/2/6 470/2/6
f 466/3/6 467/3/6 472/3/6
f 468/3/6 469/3/6 473/3/6
f 471/3/6 472/3/6 475/3/6
f 472/3/6 467/3/6 476/3/6
f 475/3/6 472/3/6 476/3/6
f 473/3/6 474/3/6 477/3/6
f 468/3/6 473/3/6 477/3/6
f 477/3/6 474/3/6 478/3/6
f 476/3/6 467/3/6 480/3/6
f 467/2/6 468/2/6 481/2/6
f 480/3/6 467/3/6 481/3/6
f 468/3/6 477/3/6 482/3/6
f 481/2/6 468/2/6 482/2/6
f 482/3/6 477/3/6 483/3/6
f 480/2/6 481/2/6 485/2/6
f 483/2/6 484/2/6 485/2/6
f 482/2/6 483/2/6 485/2/6
f 481/2/6 482/2/6 485/2/6
f 479/2/6 480/2/6 485/2/6
f 485/2/6 484/2/6 486/2/6
f 486/2/6 484/2/6 487/2/6
f 487/2/6 484/2/6 488/2/6
f 485/4/6 486/4/6 489/4/6
f 489/4/6 486/4/6 490/4/6
f 487/4/6 488/4/6 491/4/6
f 491/4/6 488/4/6 492/4/6
f 490/4/6 486/4/6 494/4/6
f 486/2/6 487/2/6 495/2/6
f 494/4/6 486/4/6 495/4/6
f 487/4/6 491/4/6 496/4/6
f 495/2/6 487/2/6 496/2/6
f 496/4/6 491/4/6 497/4/6
f 493/5/6 494/5/6 499/5/6
f 494/5/6 495/5/6 499/5/6
f 495/2/6 496/2/6 499/2/6
f 499/2/6 496/2/6 500/2/6
f 500/2/6 496/2/6 501/2/6
f 501/2/6 496/2/6 502/2/6
f 502/2/6 496/2/6 503/2/6
f 503/2/6 496/2/6 504/2/6
f 504/2/6 496/2/6 505/2/6
f 497/5/6 498/5/6 506/5/6
f 505/2/6 496/2/6 506/2/6
f 496/5/6 497/5/6 506/5/6
f 493/5/6 499/5/6 507/5/6
f 499/5/6 500/5/6 507/5/6
f 507/5/6 500/5/6 508/5/6
f 500/4/6 501/4/6 509/4/6
f 508/5/6 500/5/6 509/5/6
f 509/4/6 501/4/6 510/4/6
f 501/2/6 502/2/6 511/2/6
f 502/3/6 503/3/6 511/3/6
f 511/3/6 503/3/6 512/3/6
f 512/3/6 503/3/6 513/3/6
f 503/2/6 504/2/6 514/2/6
f 513/3/6 503/3/6 514/3/6
f 504/4/6 505/4/6 515/4/6
f 505/5/6 506/5/6 516/5/6
f 515/4/6 505/4/6 516/4/6
f 506/5/6 498/5/6 517/5/6
f 516/5/6 506/5/6 517/5/6
f 517/5/6 498/5/6 518/5/6
f 507/1/6 508/1/6 519/1/6
f 508/5/6 509/5/6 520/5/6
f 519/1/6 508/1/6 520/1/6
f 520/5/6 509/5/6 521/5/6
f 510/4/6 501/4/6 522/4/6
f 501/2/6 511/2/6 523/2/6
f 522/4/6 501/4/6 523/4/6
f 523/2/6 511/2/6 524/2/6
f 512/3/6 513/3/6 525/3/6
f 525/3/6 513/3/6 526/3/6
f 514/2/6 504/2/6 527/2/6
f 504/4/6 515/4/6 528/4/6
f 527/2/6 504/2/6 528/2/6
f 528/4/6 515/4/6 529/4/6
f 516/5/6 517/5/6 530/5/6
f 517/1/6 518/1/6 531/1/6
f 530/5/6 517/5/6 531/5/6
f 531/1/6 518/1/6 532/1/6
